<svg xmlns="http://www.w3.org/2000/svg" xmlns:xlink="http://www.w3.org/1999/xlink" version="1.1" x="0px" y="0px" viewBox="0 0 512 640" style="enable-background:new 0 0 512 512;" xml:space="preserve" fill="ghostwhite"><g><g><path d="M256.004,144.542c-61.764,0-112.014,50.001-112.014,111.46c0,61.459,50.25,111.46,112.014,111.46    c61.759,0,112.004-50.001,112.004-111.46C368.009,194.542,317.764,144.542,256.004,144.542z M256.004,341.129    c-47.149,0-85.508-38.188-85.508-85.127c0-46.942,38.359-85.131,85.508-85.131c47.148,0,85.505,38.189,85.505,85.131    C341.51,302.941,303.152,341.129,256.004,341.129z"/><path d="M260.432,261.69v23.485c3.014-0.654,5.467-2.086,7.353-4.298c1.907-2.211,2.852-4.811,2.852-7.823    c0-2.661-0.798-4.974-2.397-6.899C266.66,264.21,264.058,262.737,260.432,261.69z"/><path d="M256.004,180.242c-41.981,0-76.137,33.986-76.137,75.76c0,41.772,34.156,75.757,76.137,75.757    c41.981,0,76.134-33.984,76.134-75.757C332.139,214.228,297.985,180.242,256.004,180.242z M220.084,264.938h-17.942v-17.852    h17.942V264.938z M278.791,289.192c-4.406,4.953-10.516,8.026-18.359,9.252v11.181H251.7v-11.057    c-6.893-0.841-12.482-3.379-16.809-7.656c-4.327-4.28-7.066-10.344-8.28-18.142l15.618-1.844c0.635,3.193,1.841,5.939,3.609,8.253    c1.763,2.313,3.707,3.972,5.862,5.016V259.11c-7.813-2.228-13.527-5.607-17.153-10.132c-3.653-4.546-5.472-10.034-5.472-16.504    c0-6.554,2.068-12.061,6.188-16.504c4.116-4.463,9.589-7.021,16.438-7.696v-5.898h8.732v5.898    c6.389,0.757,11.475,2.928,15.269,6.511c3.771,3.582,6.19,8.372,7.235,14.374l-15.254,1.962c-0.942-4.708-3.36-7.902-7.25-9.579    v23.404c9.647,2.578,16.226,5.958,19.713,10.07c3.506,4.135,5.246,9.443,5.246,15.912    C285.391,278.153,283.199,284.234,278.791,289.192z M291.924,264.938v-17.852h17.934v17.852H291.924z"/><path d="M246.123,225.429c-1.375,1.928-2.054,4.033-2.054,6.347c0,2.108,0.621,4.076,1.871,5.898    c1.25,1.801,3.172,3.278,5.76,4.384v-20.765C249.339,222.135,247.498,223.506,246.123,225.429z"/><path d="M471.531,251.316h-58.256c-0.319-10.742-1.729-21.214-4.124-31.313l25.882-6.9c2.501-0.666,3.988-3.234,3.32-5.734    c-0.666-2.5-3.23-3.99-5.734-3.32l-25.91,6.907c-3.08-10.192-7.172-19.954-12.168-29.162l23.227-13.349    c2.244-1.29,3.017-4.154,1.728-6.397c-1.288-2.244-4.153-3.018-6.397-1.728l-23.275,13.378    c-5.6-8.988-12.084-17.375-19.336-25.034l41.22-41.029c1.834-1.826,1.841-4.792,0.016-6.626c-1.827-1.834-4.792-1.84-6.626-0.016    l-41.251,41.059c-7.698-7.223-16.126-13.682-25.159-19.259l13.418-23.123c1.3-2.238,0.538-5.105-1.7-6.404    c-2.238-1.3-5.105-0.537-6.404,1.7l-13.428,23.138c-9.261-4.982-19.077-9.06-29.331-12.128l6.931-25.744    c0.673-2.5-0.808-5.07-3.307-5.743c-2.503-0.673-5.069,0.808-5.742,3.307l-6.935,25.759c-10.157-2.389-20.692-3.795-31.498-4.111    V41.484c0-2.588-2.097-4.685-4.685-4.685c-2.587,0-4.685,2.097-4.685,4.685v57.959c-10.808,0.316-21.345,1.723-31.505,4.112    l-6.937-25.76c-0.672-2.499-3.243-3.979-5.742-3.307c-2.499,0.673-3.979,3.244-3.307,5.743l6.932,25.745    c-10.253,3.069-20.071,7.147-29.331,12.13l-13.428-23.141c-1.299-2.237-4.165-3-6.404-1.7c-2.238,1.298-3,4.166-1.701,6.404    l13.418,23.125c-9.033,5.577-17.46,12.036-25.159,19.259l-41.255-41.062c-1.834-1.825-4.801-1.818-6.626,0.016    c-1.825,1.834-1.818,4.801,0.016,6.626l41.225,41.031c-7.251,7.66-13.735,16.044-19.334,25.031l-23.281-13.377    c-2.246-1.289-5.107-0.516-6.397,1.728c-1.289,2.244-0.515,5.108,1.728,6.397l23.23,13.348    c-4.998,9.207-9.089,18.969-12.17,29.162l-25.905-6.907c-2.497-0.666-5.067,0.82-5.734,3.32c-0.666,2.5,0.82,5.068,3.32,5.734    l25.877,6.9c-2.395,10.099-3.805,20.572-4.124,31.313H40.469c-2.587,0-4.686,2.098-4.686,4.686s2.099,4.686,4.686,4.686h58.257    c0.319,10.739,1.728,21.21,4.123,31.308l-25.876,6.899c-2.5,0.667-3.986,3.234-3.32,5.734c0.559,2.096,2.454,3.479,4.524,3.479    c0.4,0,0.807-0.051,1.21-0.159l25.904-6.907c3.08,10.194,7.172,19.956,12.169,29.164l-23.228,13.347    c-2.243,1.288-3.017,4.152-1.728,6.396c0.867,1.508,2.444,2.352,4.067,2.352c0.792,0,1.594-0.201,2.33-0.624l23.278-13.375    c5.599,8.988,12.083,17.374,19.335,25.033l-41.223,41.027c-1.834,1.825-1.84,4.792-0.016,6.626    c0.916,0.92,2.119,1.381,3.321,1.381c1.195,0,2.391-0.455,3.305-1.365l41.252-41.057c7.699,7.224,16.126,13.683,25.161,19.26    l-13.417,23.127c-1.299,2.237-0.537,5.105,1.701,6.404c0.74,0.429,1.548,0.633,2.346,0.633c1.616,0,3.188-0.837,4.058-2.335    l13.426-23.142c9.26,4.983,19.079,9.062,29.332,12.131l-6.931,25.745c-0.672,2.498,0.808,5.069,3.307,5.742    c0.408,0.11,0.818,0.162,1.221,0.162c2.067,0,3.959-1.377,4.521-3.468l6.935-25.76c10.161,2.39,20.698,3.796,31.506,4.112v57.956    c0,2.588,2.098,4.686,4.685,4.686c2.588,0,4.685-2.098,4.685-4.686V412.56c10.807-0.316,21.342-1.722,31.5-4.111l6.933,25.759    c0.563,2.091,2.455,3.468,4.521,3.468c0.403,0,0.813-0.052,1.221-0.162c2.499-0.673,3.979-3.243,3.307-5.742l-6.93-25.743    c10.253-3.07,20.071-7.147,29.331-12.13l13.427,23.14c0.868,1.498,2.44,2.334,4.058,2.334c0.797,0,1.606-0.204,2.347-0.634    c2.237-1.299,3-4.166,1.7-6.404l-13.418-23.124c9.035-5.576,17.463-12.035,25.161-19.26l41.249,41.055    c0.914,0.91,2.109,1.365,3.305,1.365c1.203,0,2.405-0.461,3.321-1.381c1.825-1.834,1.818-4.801-0.016-6.626l-41.218-41.025    c7.252-7.661,13.736-16.047,19.336-25.036l23.273,13.376c0.736,0.423,1.539,0.624,2.33,0.624c1.623,0,3.201-0.844,4.067-2.352    c1.289-2.243,0.517-5.107-1.728-6.396l-23.225-13.349c4.998-9.207,9.088-18.969,12.168-29.162l25.908,6.907    c0.405,0.108,0.812,0.159,1.211,0.159c2.07,0,3.966-1.384,4.523-3.479c0.668-2.5-0.819-5.067-3.32-5.734l-25.881-6.899    c2.395-10.097,3.804-20.567,4.123-31.308h58.256c2.588,0,4.686-2.098,4.686-4.686S474.119,251.316,471.531,251.316z     M398.912,217.767c-1.277-4.722-2.785-9.352-4.51-13.875C396.127,208.415,397.635,213.043,398.912,217.767z M315.106,121.01    c-2.225-0.968-4.478-1.883-6.757-2.745C310.63,119.126,312.882,120.042,315.106,121.01z M301.422,115.845    c-2.333-0.75-4.691-1.444-7.072-2.081C296.731,114.4,299.089,115.094,301.422,115.845z M294.242,113.734    c-4.479-1.193-9.041-2.179-13.676-2.955C285.202,111.554,289.764,112.541,294.242,113.734z M231.45,110.778    c-4.649,0.778-9.227,1.767-13.72,2.966C222.224,112.545,226.8,111.555,231.45,110.778z M217.672,113.76    c-4.765,1.273-9.437,2.778-14,4.5C208.236,116.537,212.906,115.033,217.672,113.76z M203.67,118.261    c-4.558,1.72-9.009,3.66-13.342,5.803C194.661,121.92,199.112,119.981,203.67,118.261z M177.661,131.125    c-4.073,2.54-8.014,5.271-11.809,8.18C169.648,136.396,173.588,133.665,177.661,131.125z M165.83,139.323    c-10.139,7.778-19.24,16.832-27.057,26.919C146.591,156.154,155.69,147.101,165.83,139.323z M123.433,190.619    c-2.152,4.304-4.098,8.727-5.827,13.256C119.335,199.346,121.28,194.923,123.433,190.619z M110.063,280.407    c0.78,4.621,1.772,9.171,2.974,13.637C111.835,289.577,110.842,285.029,110.063,280.407z M110.065,231.588    c0.778-4.622,1.772-9.169,2.974-13.635C111.838,222.418,110.845,226.967,110.065,231.588z M117.595,203.902    c-1.729,4.535-3.239,9.174-4.517,13.907C114.356,213.077,115.867,208.437,117.595,203.902z M121.004,316.256    c0.782,1.729,1.587,3.444,2.434,5.138C122.591,319.7,121.786,317.984,121.004,316.256z M126.833,327.784    c1.179,2.092,2.407,4.152,3.684,6.181C129.24,331.937,128.012,329.876,126.833,327.784z M132.398,336.877    c0.016,0.022,0.031,0.045,0.047,0.068C132.43,336.922,132.414,336.899,132.398,336.877z M162.304,369.891    c10.498,8.568,22.199,15.725,34.807,21.188C184.504,385.615,172.803,378.459,162.304,369.891z M159.664,367.684    c0.549,0.47,1.107,0.928,1.663,1.39C160.771,368.611,160.212,368.153,159.664,367.684z M198.265,391.573    c1.375,0.582,2.763,1.141,4.159,1.682C201.028,392.714,199.641,392.155,198.265,391.573z M217.779,398.273    c4.485,1.193,9.055,2.181,13.694,2.956C226.833,400.455,222.265,399.467,217.779,398.273z M256.004,376.833    c-66.932,0-121.385-54.205-121.385-120.831c0-66.626,54.453-120.832,121.385-120.832c66.927,0,121.375,54.205,121.375,120.832    C377.379,322.628,322.932,376.833,256.004,376.833z M280.537,401.229c4.629-0.773,9.189-1.758,13.665-2.948    C289.727,399.471,285.167,400.456,280.537,401.229z M398.969,294.024c1.199-4.456,2.188-8.997,2.967-13.608    C401.159,285.028,400.168,289.567,398.969,294.024z M398.976,218c1.195,4.452,2.186,8.987,2.96,13.592    C401.159,226.987,400.171,222.452,398.976,218z"/></g></g><text x="0" y="527" fill="#000000" font-size="5px" font-weight="bold" font-family="'Helvetica Neue', Helvetica, Arial-Unicode, Arial, Sans-serif">Created by Flatart</text><text x="0" y="532" fill="#000000" font-size="5px" font-weight="bold" font-family="'Helvetica Neue', Helvetica, Arial-Unicode, Arial, Sans-serif">from the Noun Project</text></svg>
