<svg xmlns="http://www.w3.org/2000/svg" xmlns:xlink="http://www.w3.org/1999/xlink" xmlns:serif="http://www.serif.com/" viewBox="0 0 257 321.25" version="1.1" xml:space="preserve" style="" x="0px" y="0px" fill-rule="evenodd" clip-rule="evenodd" stroke-linejoin="round" stroke-miterlimit="2" fill="ghostwhite"><g transform="matrix(1,0,0,1,-3380,-5064)"><g transform="matrix(0.237037,0,0,0.237037,166.401,5064.56)"><rect x="13560" y="0" width="1080" height="1080" style="" fill="none"/><g transform="matrix(4.58332,0,0,4.58332,12661.6,-977.421)"><path d="M317.254,447.543L317.594,448.213L316.254,448.893L315.914,448.223C313.464,443.373 311.214,438.433 309.154,433.403C307.334,428.963 305.714,424.433 304.304,419.853C303.034,415.733 301.954,411.563 301.054,407.353C300.244,403.503 299.614,399.623 299.184,395.713C298.774,392.073 298.554,388.403 298.504,384.733C298.464,381.253 298.604,377.773 298.934,374.313C299.244,370.963 299.734,367.633 300.394,364.333C301.044,361.063 301.874,357.833 302.864,354.663C304.154,350.553 305.494,346.473 306.884,342.403C308.154,338.673 309.444,334.953 310.754,331.233C312.654,325.873 314.494,320.483 316.254,315.073C317.944,309.873 319.434,304.623 320.704,299.313C322.014,293.793 323.014,288.193 323.684,282.553C324.424,276.183 324.784,269.763 324.774,263.353C324.754,256.703 324.444,250.063 323.834,243.453L323.774,242.703L325.264,242.573L325.334,243.313C325.934,249.973 326.254,256.663 326.274,263.353C326.284,269.823 325.924,276.293 325.174,282.723C324.494,288.423 323.494,294.083 322.164,299.663C320.884,305.013 319.384,310.303 317.684,315.533C315.914,320.953 314.074,326.363 312.164,331.733C310.864,335.443 309.574,339.163 308.304,342.883C306.924,346.943 305.584,351.013 304.304,355.103C303.324,358.233 302.504,361.413 301.864,364.623C301.214,367.873 300.734,371.153 300.424,374.453C300.104,377.863 299.964,381.293 300.004,384.713C300.054,388.333 300.274,391.953 300.674,395.553C301.104,399.403 301.714,403.243 302.524,407.033C303.414,411.203 304.484,415.333 305.734,419.403C307.134,423.953 308.744,428.433 310.544,432.833C312.584,437.823 314.824,442.733 317.254,447.543Z" style="" fill-rule="nonzero"/><path d="M310.894,433.063L310.924,433.813L309.434,433.893L309.394,433.143C309.234,429.993 309.154,426.843 309.174,423.693C309.184,420.093 309.334,416.503 309.624,412.923C309.894,409.553 310.304,406.203 310.854,402.873C311.854,396.743 313.474,390.723 315.694,384.923C317.734,379.593 320.424,374.533 323.694,369.843C326.864,365.323 330.624,361.243 334.854,357.683L335.424,357.203L336.394,358.353L335.814,358.833C331.684,362.303 328.024,366.293 324.914,370.713C321.724,375.293 319.094,380.243 317.094,385.463C314.914,391.163 313.314,397.083 312.334,403.113C311.794,406.403 311.384,409.713 311.114,413.043C310.834,416.583 310.684,420.143 310.674,423.693C310.654,426.823 310.734,429.943 310.894,433.063Z" style="" fill-rule="nonzero"/><path d="M310.354,431.983L310.664,432.673L309.294,433.283L308.984,432.603C306.694,427.523 304.094,422.583 301.184,417.833C298.644,413.663 295.774,409.713 292.604,406.013C289.804,402.743 286.674,399.773 283.264,397.143C280.154,394.753 276.764,392.753 273.164,391.193C270.374,390.013 267.584,388.833 264.794,387.673C262.244,386.613 259.704,385.543 257.164,384.463C254.834,383.463 252.524,382.423 250.244,381.333C248.114,380.323 246.024,379.233 243.974,378.073C242.034,376.973 240.154,375.763 238.344,374.463C234.764,371.883 231.584,368.793 228.904,365.293C227.474,363.393 226.184,361.403 225.054,359.313C223.804,357.003 222.704,354.613 221.754,352.153L221.494,351.453L222.894,350.913L223.164,351.613C224.074,354.013 225.154,356.343 226.374,358.603C227.464,360.623 228.714,362.553 230.094,364.383C232.684,367.763 235.764,370.753 239.224,373.243C240.984,374.513 242.824,375.693 244.714,376.773C246.734,377.913 248.794,378.983 250.884,379.983C253.154,381.063 255.444,382.093 257.754,383.083C260.284,384.163 262.824,385.233 265.364,386.283C268.174,387.453 270.964,388.633 273.754,389.823C277.464,391.423 280.964,393.483 284.174,395.953C287.664,398.643 290.874,401.683 293.744,405.033C296.974,408.803 299.884,412.813 302.464,417.053C305.404,421.863 308.034,426.843 310.354,431.983Z" style="" fill-rule="nonzero"/><path d="M316.404,319.773L316.034,320.423L314.734,319.683L315.104,319.033C316.154,317.163 317.444,315.433 318.924,313.883C320.514,312.213 322.274,310.713 324.174,309.403C326.284,307.953 328.514,306.673 330.834,305.583C333.434,304.363 336.114,303.303 338.854,302.423C344.134,300.723 349.394,298.913 354.604,297.013C357.204,296.053 359.784,295.043 362.334,293.973C364.804,292.943 367.244,291.833 369.644,290.653C371.914,289.533 374.124,288.303 376.284,286.983C378.284,285.763 380.194,284.403 382.014,282.933C383.674,281.593 385.204,280.093 386.584,278.473C387.854,276.973 388.934,275.323 389.784,273.553L390.114,272.883L391.464,273.533L391.134,274.213C390.224,276.093 389.084,277.853 387.734,279.443C386.284,281.143 384.694,282.703 382.954,284.103C381.084,285.613 379.124,287.003 377.064,288.263C374.874,289.603 372.614,290.853 370.304,291.993C367.874,293.193 365.414,294.313 362.914,295.363C360.334,296.433 357.744,297.463 355.124,298.423C349.884,300.333 344.614,302.143 339.314,303.843C336.634,304.713 334.014,305.743 331.474,306.943C329.224,308.003 327.074,309.233 325.024,310.643C323.214,311.893 321.524,313.323 320.004,314.913C318.614,316.383 317.404,318.013 316.404,319.773Z" style="" fill-rule="nonzero"/><path d="M365.434,275.333L365.484,274.583L366.974,274.683L366.924,275.433C366.854,276.443 366.684,277.443 366.424,278.423C366.114,279.553 365.714,280.663 365.224,281.733C364.714,282.843 364.124,283.913 363.464,284.943C362.644,286.223 361.754,287.453 360.794,288.623C360.414,289.103 360.014,289.573 359.614,290.033C359.164,290.533 358.714,291.033 358.254,291.523C356.864,292.993 355.414,294.413 353.894,295.753C351.954,297.483 349.944,299.143 347.884,300.723L347.294,301.183L346.374,299.993L346.974,299.543C349.004,297.973 350.984,296.333 352.894,294.633C354.384,293.313 355.804,291.933 357.164,290.493C357.614,290.013 358.054,289.533 358.484,289.043C358.874,288.593 359.254,288.143 359.634,287.683C360.554,286.543 361.414,285.363 362.204,284.133C362.824,283.163 363.374,282.153 363.854,281.113C364.314,280.113 364.684,279.083 364.974,278.033C365.214,277.143 365.364,276.243 365.434,275.333Z" style="" fill-rule="nonzero"/><path d="M321.304,302.303L321.294,303.053L319.794,303.023L319.804,302.273C319.984,291.343 315.894,280.763 308.424,272.783C306.204,270.623 304.164,268.283 302.334,265.773C300.624,263.453 299.094,260.993 297.754,258.433C296.584,256.203 295.594,253.883 294.804,251.493C294.474,250.483 294.194,249.453 293.964,248.413C293.774,247.513 293.644,246.603 293.584,245.683L293.534,244.933L295.034,244.833L295.084,245.583C295.134,246.423 295.254,247.263 295.434,248.093C295.644,249.083 295.914,250.063 296.224,251.023C296.994,253.343 297.944,255.583 299.084,257.733C300.384,260.233 301.884,262.623 303.544,264.893C305.334,267.333 307.324,269.623 309.494,271.733C317.244,280.003 321.484,290.963 321.304,302.303Z" style="" fill-rule="nonzero"/><path d="M299.824,386.693L300.044,387.413L298.604,387.843L298.384,387.123C296.774,381.743 294.954,376.423 292.944,371.173C291.204,366.603 289.234,362.113 287.054,357.733C285.184,353.963 283.074,350.313 280.724,346.813C278.724,343.813 276.454,341.003 273.964,338.403C272.814,337.233 271.744,335.983 270.754,334.673C269.794,333.413 268.924,332.093 268.134,330.723C267.344,329.363 266.654,327.953 266.044,326.493C265.434,325.013 264.904,323.483 264.474,321.933C264.024,320.303 263.684,318.643 263.434,316.973C263.164,315.153 263.004,313.323 262.944,311.483C262.884,309.433 262.934,307.383 263.094,305.333C263.284,303.003 263.594,300.683 264.014,298.373L264.144,297.633L265.624,297.903L265.484,298.643C265.074,300.903 264.784,303.173 264.594,305.463C264.434,307.443 264.384,309.443 264.444,311.433C264.504,313.213 264.664,314.993 264.924,316.753C265.154,318.363 265.494,319.963 265.924,321.533C266.334,323.023 266.844,324.493 267.434,325.923C268.014,327.313 268.684,328.673 269.434,329.973C270.184,331.293 271.024,332.563 271.944,333.773C272.904,335.033 273.934,336.233 275.044,337.363C277.594,340.023 279.914,342.903 281.974,345.973C284.354,349.533 286.504,353.233 288.404,357.063C290.604,361.493 292.584,366.023 294.354,370.643C296.374,375.923 298.194,381.273 299.824,386.693Z" style="" fill-rule="nonzero"/><path d="M313.614,396.464C315.926,392.765 319.111,390.71 323.17,390.299C329.258,389.683 336.887,393.382 343.437,389.143C339.43,395.924 334.344,399.289 328.179,399.238C322.014,399.187 317.159,398.262 313.614,396.464Z" style="" fill-rule="nonzero"/><path d="M365.736,293.569C368.779,291.923 371.78,291.753 374.74,293.058C379.18,295.016 382.993,300.554 389.17,300.195C383.751,303.303 378.926,303.633 374.695,301.184C370.463,298.735 367.477,296.197 365.736,293.569Z" style="" fill-rule="nonzero"/><path d="M275.827,338.949C275.029,334.661 275.986,330.993 278.698,327.946C282.766,323.375 290.888,320.941 292.847,313.389C294.481,321.094 293.01,327.013 288.433,331.144C283.857,335.275 279.655,337.876 275.827,338.949Z" style="" fill-rule="nonzero"/><path d="M325.698,270.843C326.14,267.879 327.583,265.711 330.027,264.34C333.694,262.283 339.513,262.522 342.478,258.056C341.813,263.427 339.531,266.941 335.633,268.598C331.736,270.256 328.424,271.004 325.698,270.843Z" style="" fill-rule="nonzero"/><path d="M264.592,319.109C263.67,315.718 261.889,313.578 259.248,312.689C255.287,311.356 249.572,313.409 245.911,308.998C247.448,315.185 250.278,318.672 254.402,319.459C258.527,320.246 261.923,320.129 264.592,319.109Z" style="" fill-rule="nonzero"/><path d="M255.592,384.749C253.607,381.848 251.221,380.412 248.435,380.44C244.257,380.481 239.533,384.297 234.626,381.333C238.109,386.672 241.928,389.036 246.082,388.425C250.237,387.814 253.407,386.589 255.592,384.749Z" style="" fill-rule="nonzero"/><path d="M221.691,351.992C223.103,350.619 224.394,349.788 225.563,349.498C227.317,349.063 234.712,346.286 234.087,338.642C233.461,330.999 231.644,329.324 234.842,326.143C229.443,326.46 225.113,328.607 221.85,332.586C218.587,336.565 218.534,343.033 221.691,351.992Z" style="" fill-rule="nonzero"/><path d="M324.378,244.461C325.79,243.088 327.081,242.257 328.25,241.967C330.005,241.532 337.4,238.755 336.774,231.111C336.149,223.467 334.331,221.793 337.529,218.612C332.131,218.929 327.8,221.076 324.537,225.055C321.274,229.034 321.221,235.502 324.378,244.461Z" style="" fill-rule="nonzero"/><path d="M366.414,275.775C365.249,274.186 364.115,273.152 363.01,272.672C361.352,271.952 354.521,267.986 356.406,260.552C358.292,253.118 360.362,251.769 357.737,248.101C363.008,249.31 366.922,252.147 369.479,256.612C372.036,261.077 371.015,267.465 366.414,275.775Z" style="" fill-rule="nonzero"/><path d="M263.998,299.176C263.294,296.928 262.409,295.319 261.344,294.348C259.746,292.892 253.547,285.761 258.557,278.076C263.567,270.39 266.432,269.664 264.878,264.497C270.377,267.903 273.71,272.628 274.878,278.671C276.045,284.714 272.419,291.549 263.998,299.176Z" style="" fill-rule="nonzero"/><path d="M335.308,357.722C337.922,350.465 340.998,346.112 344.537,344.663C349.845,342.49 359.619,344.033 366.384,348.432C363.489,351.285 361.501,353.764 360.42,355.868C358.798,359.024 352.789,365.083 343.586,362.004C337.45,359.951 334.691,358.524 335.308,357.722Z" style="" fill-rule="nonzero"/><path d="M390.855,273.674C397.84,273.414 402.445,271.956 404.67,269.299C408.006,265.313 409.363,256.45 407.425,249.399C404.165,251.114 401.478,252.149 399.364,252.503C396.193,253.034 389.31,256.556 389.436,265.349C389.52,271.212 389.993,273.987 390.855,273.674Z" style="" fill-rule="nonzero"/><path d="M294.083,245.478C288.194,240.551 285.179,236.186 285.036,232.383C284.822,226.678 289.609,218.072 296.036,213.256C297.711,216.938 299.347,219.644 300.944,221.374C303.339,223.97 306.945,231.659 300.917,239.207C296.899,244.239 294.621,246.329 294.083,245.478Z" style="" fill-rule="nonzero"/></g></g></g><text x="0" y="272" fill="#000000" font-size="5px" font-weight="bold" font-family="'Helvetica Neue', Helvetica, Arial-Unicode, Arial, Sans-serif">Created by Andri Graphic</text><text x="0" y="277" fill="#000000" font-size="5px" font-weight="bold" font-family="'Helvetica Neue', Helvetica, Arial-Unicode, Arial, Sans-serif">from the Noun Project</text></svg>
