<svg xmlns="http://www.w3.org/2000/svg" xmlns:xlink="http://www.w3.org/1999/xlink" version="1.1" x="0px" y="0px" viewBox="0 0 100 125" enable-background="new 0 0 100 100" xml:space="preserve" fill="ghostwhite"><circle cx="52.096" cy="55.958" r="9.597"/><path d="M52.098,31.106c-0.811,0-1.468,0.657-1.468,1.468v9.22c0,0.811,0.657,1.468,1.468,1.468c0.812,0,1.469-0.657,1.469-1.468  v-9.22C53.564,31.763,52.908,31.106,52.098,31.106z"/><path d="M52.098,68.652c-0.811,0-1.468,0.656-1.468,1.468v9.219c0,0.812,0.657,1.468,1.468,1.468c0.812,0,1.469-0.656,1.469-1.468  V70.12C53.564,69.311,52.908,68.652,52.098,68.652z"/><path d="M75.482,54.49h-9.221c-0.811,0-1.468,0.656-1.468,1.468s0.657,1.468,1.468,1.468h9.221c0.811,0,1.468-0.656,1.468-1.468  S76.293,54.49,75.482,54.49z"/><path d="M39.403,55.958c0-0.812-0.657-1.468-1.468-1.468h-9.219c-0.811,0-1.468,0.656-1.468,1.468s0.657,1.468,1.468,1.468h9.219  C38.746,57.426,39.403,56.77,39.403,55.958z"/><path d="M63.15,64.938c-0.574-0.572-1.502-0.572-2.076,0c-0.573,0.572-0.573,1.502,0,2.076l6.519,6.519  c0.287,0.286,0.662,0.43,1.038,0.43s0.751-0.144,1.038-0.43c0.573-0.573,0.573-1.503,0-2.076L63.15,64.938z"/><path d="M42.081,47.412c0.375,0,0.751-0.143,1.038-0.43c0.573-0.573,0.574-1.502,0-2.076l-6.516-6.519  c-0.573-0.573-1.502-0.574-2.076,0c-0.573,0.573-0.574,1.502,0,2.076l6.516,6.519C41.329,47.269,41.705,47.412,42.081,47.412z"/><path d="M41.049,64.938l-6.519,6.518c-0.573,0.572-0.574,1.503,0,2.076c0.287,0.285,0.663,0.43,1.038,0.43s0.751-0.145,1.038-0.43  l6.519-6.518c0.573-0.572,0.574-1.503,0-2.076C42.551,64.366,41.622,64.366,41.049,64.938z"/><path d="M62.118,47.412c0.376,0,0.751-0.143,1.038-0.43l6.519-6.516c0.573-0.573,0.573-1.502,0-2.076  c-0.573-0.573-1.502-0.574-2.075,0l-6.52,6.516c-0.573,0.573-0.573,1.502,0,2.076C61.367,47.269,61.742,47.412,62.118,47.412z"/><path d="M47.271,17.524l-3.993-0.58l-1.786-3.618c-0.247-0.501-0.757-0.818-1.316-0.818c-0.559,0-1.069,0.317-1.316,0.818  l-1.785,3.618l-3.992,0.58c-0.553,0.081-1.012,0.468-1.185,1c-0.172,0.531-0.028,1.114,0.372,1.504l2.89,2.815l-0.684,3.976  c-0.094,0.551,0.132,1.107,0.584,1.436c0.453,0.329,1.052,0.373,1.546,0.111l3.57-1.878l3.572,1.878  c0.215,0.113,0.449,0.169,0.683,0.169c0.304,0,0.607-0.095,0.863-0.28c0.452-0.329,0.678-0.885,0.584-1.436l-0.684-3.976l2.89-2.815  c0.4-0.39,0.544-0.973,0.372-1.504C48.284,17.992,47.825,17.605,47.271,17.524z"/><path d="M95.512,40.687c-0.174-0.532-0.634-0.919-1.187-1l-3.995-0.58l-1.785-3.618c-0.247-0.501-0.758-0.818-1.316-0.818  c-0.558,0-1.068,0.317-1.315,0.818l-1.786,3.619l-3.988,0.58c-0.553,0.081-1.013,0.468-1.185,0.999  c-0.173,0.531-0.029,1.114,0.371,1.504l2.887,2.815l-0.683,3.979c-0.096,0.551,0.132,1.107,0.584,1.436  c0.453,0.328,1.053,0.371,1.546,0.111l3.569-1.879l3.571,1.879c0.216,0.112,0.449,0.169,0.685,0.169c0.304,0,0.606-0.096,0.861-0.28  c0.452-0.329,0.68-0.885,0.584-1.436l-0.684-3.979l2.893-2.815C95.539,41.801,95.684,41.218,95.512,40.687z"/><path d="M21.233,36.123l-3.993-0.58l-1.785-3.618c-0.248-0.501-0.758-0.818-1.316-0.818c-0.558,0-1.069,0.317-1.316,0.818  l-1.785,3.618l-3.992,0.58c-0.553,0.081-1.012,0.468-1.185,0.999c-0.172,0.532-0.028,1.115,0.372,1.505l2.89,2.815L8.44,45.418  c-0.094,0.551,0.132,1.107,0.584,1.436c0.452,0.328,1.052,0.372,1.546,0.111l3.571-1.878l3.571,1.878  c0.215,0.113,0.449,0.169,0.683,0.169c0.304,0,0.607-0.095,0.863-0.28c0.452-0.329,0.678-0.885,0.584-1.436l-0.683-3.976l2.89-2.815  c0.4-0.39,0.544-0.973,0.372-1.505C22.245,36.59,21.786,36.203,21.233,36.123z"/><text x="0" y="115" fill="#000000" font-size="5px" font-weight="bold" font-family="'Helvetica Neue', Helvetica, Arial-Unicode, Arial, Sans-serif">Created by Isabel Foo</text><text x="0" y="120" fill="#000000" font-size="5px" font-weight="bold" font-family="'Helvetica Neue', Helvetica, Arial-Unicode, Arial, Sans-serif">from the Noun Project</text></svg>
