<svg xmlns="http://www.w3.org/2000/svg" data-name="Layer 1" viewBox="0 0 128 160" x="0px" y="0px" fill="ghostwhite"><title>Miscellaneous 92 SOLID</title><circle cx="36" cy="19" r="2"/><circle cx="95" cy="78" r="2"/><circle cx="17.00006" cy="88" r="2"/><circle cx="114" cy="46.99969" r="2"/><circle cx="65" cy="118" r="2"/><path d="M74,59.63965H67.83594l-1.9248-6.23047a2.00053,2.00053,0,0,0-3.82227,0l-1.9248,6.23047H54a2.00024,2.00024,0,0,0-1.21387,3.58984l5.07129,3.873L55.9082,73.40918a1.99973,1.99973,0,0,0,3.125,2.17969L64,71.79492l4.9668,3.79395a1.99973,1.99973,0,0,0,3.125-2.17969l-1.94922-6.30664,5.07129-3.873A2.00024,2.00024,0,0,0,74,59.63965Z"/><path d="M84,45a5.98866,5.98866,0,0,0-9.58148-4.80255A25.97235,25.97235,0,0,0,43.69476,80.20551a5.99165,5.99165,0,0,0,9.24969,7.30457A25.97185,25.97185,0,0,0,83.64825,47.0047,5.95949,5.95949,0,0,0,84,45Zm2,19A21.96478,21.96478,0,0,1,54.90759,84.01367,5.99321,5.99321,0,0,0,46.642,77.48419,21.972,21.972,0,0,1,72.17426,43.59a5.98578,5.98578,0,0,0,8.89661,6.55518A21.88609,21.88609,0,0,1,86,64Z"/><path d="M72.72791,18.84332a8.98743,8.98743,0,0,0-17.4566.00305A46.11872,46.11872,0,0,0,18.83917,55.27319a8.98735,8.98735,0,0,0,.00415,17.45471A45.99577,45.99577,0,1,0,72.72791,18.84332ZM64,106A42.06333,42.06333,0,0,1,22.93555,72.78491a8.9943,8.9943,0,0,0,.00476-17.5686A42.11277,42.11277,0,0,1,55.21582,22.93823a8.99432,8.99432,0,0,0,17.56909-.00269A41.99639,41.99639,0,0,1,64,106Z"/><path d="M128,64a63.575,63.575,0,0,0-8.57227-31.944,10.98744,10.98744,0,0,0-13.82642-16.62921,63.94,63.94,0,0,0-89.41669,91.02173,10.98454,10.98454,0,0,0,17.15717,13.702,63.77651,63.77651,0,0,0,67.95331-4.1955,8.98833,8.98833,0,0,0,12.90332-12.33441A63.65366,63.65366,0,0,0,128,64Zm-16.843,37.02527a8.98283,8.98283,0,0,0-12.30768,11.767,59.79226,59.79226,0,0,1-63.49976,3.89807A10.978,10.978,0,0,0,19.11,103.72552,59.94342,59.94342,0,0,1,102.4939,18.03528a10.9919,10.9919,0,0,0,13.81335,16.59363,59.84541,59.84541,0,0,1-5.15021,66.39636Z"/><text x="0" y="143" fill="#000000" font-size="5px" font-weight="bold" font-family="'Helvetica Neue', Helvetica, Arial-Unicode, Arial, Sans-serif">Created by priyanka</text><text x="0" y="148" fill="#000000" font-size="5px" font-weight="bold" font-family="'Helvetica Neue', Helvetica, Arial-Unicode, Arial, Sans-serif">from the Noun Project</text></svg>
