<svg xmlns="http://www.w3.org/2000/svg" xmlns:xlink="http://www.w3.org/1999/xlink" xmlns:sketch="http://www.bohemiancoding.com/sketch/ns" viewBox="0 0 100 125" version="1.1" x="0px" y="0px" fill="ghostwhite"><title>C05</title><desc>Created with Sketch.</desc><g stroke="none" stroke-width="1" fill="none" fill-rule="evenodd" sketch:type="MSPage"><g sketch:type="MSArtboardGroup" fill="ghostwhite"><path d="M79.8444135,34.0584407 C79.8444135,34.9885854 79.0471565,35.6529745 78.2498996,35.6529745 L78.1170234,35.6529745 C77.7183949,35.6529745 77.3197664,35.3872188 77.0540141,35.1214632 C76.7882618,34.8557076 76.5225094,34.3241963 76.6553856,33.9255629 C76.6553856,32.0652735 75.9910048,30.2049841 74.6622431,28.7433282 C73.3334815,27.2816723 71.6060914,26.4844054 69.6129489,26.4844054 C69.2143204,26.4844054 68.8156919,26.2186498 68.4170634,25.9528941 C68.1513111,25.6871385 68.018435,25.1556272 68.018435,24.7569938 C68.018435,23.8268491 68.8156919,23.1624601 69.6129489,23.1624601 C72.5362245,23.2953379 75.0608716,24.4912382 77.0540141,26.4844054 C78.9142804,28.6104504 79.9772897,31.2680066 79.8444135,34.0584407 L79.8444135,34.0584407 Z M82.5019368,22.498071 C78.648528,18.3788588 73.4663577,15.9870581 67.8855588,15.8541803 C62.7033884,15.7213025 57.7869703,17.4487141 53.8006854,20.6377816 C51.6746668,14.5254022 45.9609918,10.1404344 39.4500598,10.0075566 C30.680233,9.74180094 23.5049201,16.5185694 23.2391678,25.1556272 C23.2391678,26.2186498 23.2391678,27.2816723 23.5049201,28.3446948 C17.3926166,30.4707398 13.2734555,36.1844857 13.0077032,42.6954986 C12.7419509,51.0668008 19.385759,58.3750805 27.7569574,58.9065918 L36.9254127,58.9065918 C37.988422,58.9065918 38.9185551,58.1093249 38.9185551,57.0463024 C38.9185551,56.2490355 38.2541743,55.4517686 37.4569173,55.186013 L37.3240411,55.186013 L29.085719,55.186013 L28.6870905,55.186013 L28.288462,55.186013 L28.0227097,55.186013 C21.6446538,54.7873795 16.5953596,49.2065114 16.7282358,42.8283764 C16.8611119,37.7790195 20.3158922,33.2611738 25.2323103,31.7995179 C25.7638149,31.6666401 26.4281957,31.5337623 26.9597004,31.4008845 L27.3583289,31.4008845 C27.8898335,31.1351288 28.0227097,30.7364954 27.8898335,30.337862 L27.8898335,30.337862 L27.7569574,29.9392285 C27.491205,29.4077173 27.3583289,28.7433282 27.2254527,28.2118169 C27.0925765,27.2816723 26.9597004,26.2186498 26.9597004,25.2885051 C27.2254527,18.7774922 32.4076231,13.7281353 38.9185551,13.7281353 L39.3171836,13.7281353 C42.107583,13.8610131 44.8979825,14.9240356 47.0240011,16.784325 C49.1500197,18.6446144 50.4787813,21.1692929 50.8774098,23.9597269 C50.8774098,24.2254826 50.8774098,24.3583604 51.010286,24.624116 L51.010286,25.4213829 C51.010286,26.0857719 51.4089145,26.750161 52.0732953,26.8830388 C52.4719238,27.0159166 53.0034285,26.8830388 53.2691808,26.6172832 L53.6678093,26.0857719 C53.6678093,26.0857719 53.6678093,26.0857719 53.6678093,25.9528941 L53.6678093,25.9528941 L53.8006854,25.6871385 L53.9335616,25.5542607 C54.0664378,25.4213829 54.1993139,25.1556272 54.4650663,25.0227494 C57.9198465,21.3021707 62.7033884,19.3090035 67.7526826,19.4418813 C72.4033484,19.5747591 76.6553856,21.5679263 79.8444135,24.8898716 C83.0334414,28.3446948 84.6279554,32.7296626 84.4950792,37.380386 C84.3622031,42.0311095 82.5019368,46.2831995 79.0471565,49.472267 C78.9142804,49.6051448 76.9211379,51.4654342 74.6622431,52.3955789 C71.6060914,53.8572349 67.8855588,54.7873795 63.7663977,54.9202574 C63.2348931,54.9202574 62.8362646,55.186013 62.4376361,55.4517686 C62.0390076,55.8504021 61.9061314,56.2490355 61.9061314,56.7805467 C61.9061314,57.7106914 62.7033884,58.5079583 63.6335216,58.5079583 L63.7663977,58.5079583 C68.4170634,58.3750805 72.6691007,57.312058 76.2567571,55.5846464 C76.7882618,55.3188908 77.1868902,55.0531352 77.7183949,54.7873795 L77.8512711,54.6545017 C79.445785,53.724357 80.5087943,52.7942124 80.9074228,52.3955789 C85.2923362,48.5421223 87.8169833,43.094132 87.9498595,37.2475082 C88.348488,31.9323957 86.3553455,26.6172832 82.5019368,22.498071 L82.5019368,22.498071 Z M69.0814443,43.6256433 C69.0814443,44.8215436 68.5499396,45.8845661 67.7526826,46.681833 C67.3540541,47.0804664 66.8225495,47.346222 66.2910448,47.7448555 C65.3609117,48.4092445 64.4307785,48.9407558 63.2348931,50.5352895 L62.0390076,52.1298233 C61.9061314,52.3955789 61.5075029,52.5284567 61.2417506,52.6613345 C60.9759983,52.7942124 60.7102459,52.7942124 60.5773698,52.7942124 L60.4444936,52.7942124 C59.912989,52.7942124 59.2486081,52.5284567 58.9828558,52.2627011 L58.5842273,51.8640677 L57.6540942,50.5352895 C56.4582087,48.9407558 55.5280756,48.4092445 54.5979424,47.7448555 C54.0664378,47.4790998 53.6678093,47.0804664 53.1363046,46.681833 C52.3390476,45.8845661 51.807543,44.9544214 51.807543,43.7585211 C51.807543,43.094132 51.9404191,42.4297429 52.0732953,42.0311095 L52.0732953,41.8982317 C52.0732953,41.8982317 52.0732953,41.7653539 52.2061715,41.7653539 C52.7376761,40.3036979 53.9335616,39.1077976 55.3951994,38.5762864 L55.5280756,38.5762864 L55.7938279,38.4434085 C56.4582087,38.3105307 57.2554657,38.1776529 57.6540942,38.1776529 C58.5842273,38.1776529 59.5143605,38.5762864 60.3116175,39.1077976 C61.1088744,38.5762864 62.1718838,38.1776529 63.1020169,38.1776529 L63.3677692,38.1776529 C66.5567972,38.3105307 68.9485681,40.7023314 69.0814443,43.6256433 L69.0814443,43.6256433 Z M57.2554657,41.2338426 L57.2554657,41.2338426 C56.9897134,41.2338426 56.723961,41.2338426 56.4582087,41.3667204 C55.7938279,41.6324761 55.1294471,42.1639873 54.8636947,42.8283764 C54.7308186,43.094132 54.7308186,43.2270098 54.7308186,43.4927654 C54.7308186,43.8913989 54.8636947,44.0242767 55.1294471,44.2900323 C55.3951994,44.5557879 55.7938279,44.6886658 56.1924564,44.9544214 C57.2554657,45.6188105 58.5842273,46.5489551 60.0458651,48.5421223 L60.3116175,48.807878 L60.4444936,49.0736336 L60.8431221,48.5421223 C62.3047599,46.5489551 63.7663977,45.6188105 64.6965309,45.0872992 C65.0951594,44.8215436 65.4937878,44.5557879 65.7595402,44.4229101 C66.0252925,44.1571545 66.0252925,44.0242767 66.1581687,43.6256433 C66.1581687,42.2968651 65.0951594,41.2338426 63.6335216,41.2338426 L63.5006454,41.2338426 C63.2348931,41.2338426 62.8362646,41.3667204 62.5705122,41.3667204 C62.8362646,41.7653539 62.9691407,42.1639873 63.2348931,42.5626208 C63.5006454,43.3598876 63.2348931,44.2900323 62.4376361,44.5557879 C61.5075029,44.9544214 60.7102459,44.5557879 60.4444936,43.7585211 C60.3116175,43.3598876 60.0458651,42.9612542 59.7801128,42.6954986 L59.3814843,42.1639873 L59.115732,41.8982317 L58.8499797,41.6324761 C58.4513512,41.3667204 58.0527227,41.2338426 57.521218,41.2338426 L57.2554657,41.2338426 L57.2554657,41.2338426 Z M56.4582087,62.2285371 C56.4582087,63.4244374 55.9267041,64.4874599 55.1294471,65.2847268 C54.7308186,65.6833602 54.1993139,65.9491158 53.6678093,66.3477493 C52.7376761,67.0121383 51.807543,67.5436496 50.6116575,69.1381834 L49.415772,70.7327171 C49.2828959,70.9984727 48.8842674,71.1313506 48.6185151,71.2642284 C48.3527627,71.3971062 48.0870104,71.3971062 47.9541342,71.3971062 L47.8212581,71.3971062 C47.2897534,71.3971062 46.6253726,71.1313506 46.3596203,70.8655949 L46.0938679,70.4669615 L45.1637348,69.1381834 C43.9678493,67.5436496 43.0377162,67.0121383 42.107583,66.3477493 C41.5760784,66.0819937 41.1774499,65.6833602 40.6459452,65.2847268 C39.8486883,64.4874599 39.3171836,63.5573152 39.3171836,62.3614149 C39.3171836,61.6970258 39.4500598,61.0326368 39.5829359,60.6340033 L39.5829359,60.5011255 C39.5829359,60.5011255 39.5829359,60.3682477 39.7158121,60.3682477 C40.2473167,58.9065918 41.4432022,57.7106914 42.90484,57.1791802 L43.0377162,57.1791802 L43.3034685,57.0463024 C43.9678493,56.9134246 44.7651063,56.7805467 45.1637348,56.7805467 C46.0938679,56.7805467 47.0240011,57.1791802 47.8212581,57.7106914 C48.6185151,57.1791802 49.6815244,56.7805467 50.6116575,56.7805467 L50.8774098,56.7805467 C53.9335616,56.9134246 56.3253325,59.1723474 56.4582087,62.2285371 L56.4582087,62.2285371 Z M44.6322301,59.8367364 L44.6322301,59.8367364 C44.3664778,59.8367364 44.1007255,59.8367364 43.8349732,59.9696143 C43.1705923,60.2353699 42.5062115,60.7668811 42.2404592,61.4312702 C42.107583,61.6970258 42.107583,61.8299036 42.107583,62.0956593 C42.107583,62.4942927 42.2404592,62.6271705 42.5062115,62.8929261 C42.7719639,63.1586818 43.1705923,63.2915596 43.5692208,63.5573152 C44.6322301,64.2217043 45.9609918,65.151849 47.4226296,67.1450162 L47.6883819,67.4107718 L47.8212581,67.6765274 L48.2198866,67.1450162 C49.6815244,65.151849 51.1431622,64.2217043 52.0732953,63.690193 C52.4719238,63.4244374 52.8705523,63.1586818 53.1363046,63.025804 C53.4020569,62.7600483 53.4020569,62.6271705 53.5349331,62.2285371 C53.5349331,60.8997589 52.4719238,59.8367364 51.010286,59.8367364 L50.8774098,59.8367364 C50.6116575,59.8367364 50.213029,59.9696143 49.9472767,59.9696143 C50.213029,60.3682477 50.3459052,60.7668811 50.6116575,61.1655146 C50.8774098,61.9627815 50.6116575,62.8929261 49.8144005,63.1586818 C48.8842674,63.5573152 48.0870104,63.1586818 47.8212581,62.3614149 C47.6883819,61.9627815 47.4226296,61.564148 47.1568773,61.2983924 L46.7582488,60.7668811 L46.4924964,60.5011255 L46.2267441,60.2353699 C45.8281156,59.9696143 45.4294871,59.8367364 44.8979825,59.8367364 L44.6322301,59.8367364 L44.6322301,59.8367364 Z M39.8486883,80.8314309 C39.8486883,82.0273312 39.3171836,83.0903537 38.5199266,83.8876206 C38.1212981,84.286254 37.5897935,84.5520097 37.0582888,84.9506431 C36.1281557,85.6150322 35.1980225,86.1465434 34.0021371,87.7410772 L32.8062516,89.3356109 C32.6733754,89.6013666 32.2747469,89.7342444 32.0089946,89.8671222 C31.7432423,90 31.4774899,90 31.3446138,90 L31.2117376,90 C30.680233,90 30.0158521,89.7342444 29.7500998,89.4684887 L29.3514713,89.0698553 L28.4213382,87.7410772 C27.2254527,86.1465434 26.2953196,85.6150322 25.3651864,84.9506431 C24.8336818,84.6848875 24.4350533,84.286254 23.9035486,83.8876206 C23.1062916,83.0903537 22.574787,82.160209 22.574787,80.9643087 C22.574787,80.2999196 22.7076631,79.6355306 22.8405393,79.2368971 L22.8405393,79.1040193 C22.8405393,79.1040193 22.8405393,78.9711415 22.9734155,78.9711415 C23.5049201,77.5094856 24.7008056,76.3135853 26.1624434,75.782074 L26.2953196,75.782074 L26.5610719,75.6491962 C27.2254527,75.5163184 28.0227097,75.3834406 28.4213382,75.3834406 C29.3514713,75.3834406 30.2816045,75.782074 31.0788615,76.3135853 C31.8761184,75.782074 32.9391277,75.3834406 33.8692609,75.3834406 L34.1350132,75.3834406 C37.3240411,75.3834406 39.7158121,77.7752412 39.8486883,80.8314309 L39.8486883,80.8314309 Z M28.0227097,78.4396303 L28.0227097,78.4396303 C27.7569574,78.4396303 27.491205,78.4396303 27.2254527,78.5725081 C26.5610719,78.8382637 25.8966911,79.369775 25.6309387,80.034164 C25.4980626,80.2999196 25.4980626,80.4327975 25.4980626,80.6985531 C25.4980626,81.0971865 25.6309387,81.2300643 25.8966911,81.49582 C26.1624434,81.7615756 26.5610719,81.8944534 26.9597004,82.160209 C28.0227097,82.8245981 29.3514713,83.7547428 30.8131091,85.74791 L31.0788615,86.0136656 L31.2117376,86.2794212 L31.6103661,85.74791 C33.0720039,83.7547428 34.5336417,82.8245981 35.4637749,82.2930868 C35.8624033,82.0273312 36.2610318,81.7615756 36.5267842,81.6286978 C36.7925365,81.3629422 36.7925365,81.2300643 36.9254127,80.8314309 C36.9254127,79.5026528 35.8624033,78.4396303 34.4007655,78.4396303 L34.2678894,78.4396303 C34.0021371,78.4396303 33.6035086,78.5725081 33.3377562,78.5725081 C33.6035086,78.9711415 33.7363847,79.369775 34.0021371,79.7684084 C34.2678894,80.5656753 34.0021371,81.49582 33.2048801,81.7615756 C32.2747469,82.160209 31.4774899,81.7615756 31.2117376,80.9643087 C31.0788615,80.5656753 30.8131091,80.1670418 30.5473568,79.9012862 L30.1487283,79.369775 L29.882976,79.1040193 L29.6172237,78.8382637 C29.2185952,78.5725081 28.8199667,78.4396303 28.288462,78.4396303 L28.0227097,78.4396303 L28.0227097,78.4396303 Z" sketch:type="MSShapeGroup"/></g></g><text x="0" y="115" fill="ghostwhite" font-size="5px" font-weight="bold" font-family="'Helvetica Neue', Helvetica, Arial-Unicode, Arial, Sans-serif">Created by Max Ten</text><text x="0" y="120" fill="ghostwhite" font-size="5px" font-weight="bold" font-family="'Helvetica Neue', Helvetica, Arial-Unicode, Arial, Sans-serif">from the Noun Project</text></svg>
