<svg xmlns="http://www.w3.org/2000/svg" xmlns:xlink="http://www.w3.org/1999/xlink" version="1.1" x="0px" y="0px" viewBox="0 0 64 80" style="enable-background:new 0 0 64 64;" xml:space="preserve" fill="ghostwhite"><g><path d="M5,51h30V35H5V51z M16.184,49c0.414-1.161,1.514-2,2.816-2s2.402,0.839,2.816,2H16.184z M7,37h2v2h2v-2h2v2h2v-2h2v2h2v-2   h2v2h2v-2h2v2h2v-2h2v2h2v-2h2v12h-9.101c-0.357-1.75-1.639-3.149-3.304-3.715l2.262-3.77l-1.715-1.029l-2.745,4.576   c-2.139,0.261-3.871,1.855-4.296,3.939H7V37z"/><path d="M33,53H23c-1.103,0-2,0.897-2,2v2c0,1.103,0.897,2,2,2h10c1.103,0,2-0.897,2-2v-2C35,53.897,34.103,53,33,53z M23,57v-2h10   l0.002,2H23z"/><path d="M8,53c-1.654,0-3,1.346-3,3s1.346,3,3,3s3-1.346,3-3S9.654,53,8,53z M8,57c-0.552,0-1-0.448-1-1s0.448-1,1-1s1,0.448,1,1   S8.552,57,8,57z"/><path d="M16,53c-1.654,0-3,1.346-3,3s1.346,3,3,3s3-1.346,3-3S17.654,53,16,53z M16,57c-0.552,0-1-0.448-1-1s0.448-1,1-1   s1,0.448,1,1S16.552,57,16,57z"/><path d="M58,13H34.414l5.465-5.465C40.602,6.812,41,5.851,41,4.828C41,2.718,39.282,1,37.172,1c-1.022,0-1.984,0.398-2.707,1.121   l-8.872,8.872c-1.202,1.202-2.641,2.151-4.205,2.803C22.395,12.458,23,10.8,23,9c0-4.411-3.589-8-8-8S7,4.589,7,9   c0,2.498,1.152,4.73,2.951,6.199C4.863,16.162,1,20.635,1,26v3.5c0,0.905,0.355,1.724,0.921,2.346C1.355,32.392,1,33.154,1,34v26   c0,1.654,1.346,3,3,3h30h2h22c2.757,0,5-2.243,5-5V18C63,15.243,60.757,13,58,13z M9,9c0-3.309,2.691-6,6-6s6,2.691,6,6   s-2.691,6-6,6S9,12.309,9,9z M3,26c0-4.963,4.037-9,9-9h4l2.521-0.35c3.192-0.457,6.206-1.964,8.485-4.243l8.872-8.872   C36.219,3.195,36.69,3,37.172,3C38.18,3,39,3.82,39,4.828c0,0.481-0.195,0.953-0.535,1.293L23.025,21.561   C22.364,22.222,22,23.101,22,24.035V31h-4.351C17.867,30.544,18,30.039,18,29.5c0-1.93-1.57-3.5-3.5-3.5H6v2h8.5   c0.827,0,1.5,0.673,1.5,1.5S15.327,31,14.5,31H11H4.5C3.673,31,3,30.327,3,29.5V26z M29,18.414V31h-5v-6.965   c0-0.4,0.156-0.777,0.439-1.061L29,18.414z M37,60c0,0.552-0.448,1-1,1h-2H4c-0.552,0-1-0.448-1-1V34c0-0.552,0.448-1,1-1h0.5H11   h3.5H24h12c0.552,0,1,0.448,1,1V60z M36,31h-1v-4h22v6H38.816C38.402,31.839,37.302,31,36,31z M35,25v-6h22v6H35z M39,41v-6h18v6   H39z M57,43v6H39v-6H57z M61,58c0,1.654-1.346,3-3,3H38.816C38.928,60.686,39,60.352,39,60v-9h18c1.103,0,2-0.897,2-2V19   c0-1.103-0.897-2-2-2H35c-1.103,0-2,0.897-2,2v12h-2V18c0-1.654,1.346-3,3-3h24c1.654,0,3,1.346,3,3V58z"/><path d="M56,53c-1.654,0-3,1.346-3,3s1.346,3,3,3s3-1.346,3-3S57.654,53,56,53z M56,57c-0.552,0-1-0.448-1-1s0.448-1,1-1   s1,0.448,1,1S56.552,57,56,57z"/><rect x="41" y="53" width="2" height="2"/><rect x="41" y="57" width="2" height="2"/><rect x="37" y="21" width="2" height="2"/><rect x="41" y="21" width="2" height="2"/><rect x="53" y="29" width="2" height="2"/><rect x="49" y="29" width="2" height="2"/><rect x="41" y="37" width="2" height="2"/><rect x="53" y="45" width="2" height="2"/><rect x="49" y="45" width="2" height="2"/></g><text x="0" y="79" fill="#000000" font-size="5px" font-weight="bold" font-family="'Helvetica Neue', Helvetica, Arial-Unicode, Arial, Sans-serif">Created by Eucalyp</text><text x="0" y="84" fill="#000000" font-size="5px" font-weight="bold" font-family="'Helvetica Neue', Helvetica, Arial-Unicode, Arial, Sans-serif">from the Noun Project</text></svg>
