<svg xmlns="http://www.w3.org/2000/svg" xmlns:xlink="http://www.w3.org/1999/xlink" version="1.1" x="0px" y="0px" viewBox="0 0 512 640" style="enable-background:new 0 0 512 512;" xml:space="preserve" fill="ghostwhite"><g><g><g><path d="M70.44,352.117c-2.053,0-4.093-0.632-5.82-1.867c-2.93-2.097-4.506-5.606-4.125-9.189L63.158,316H39.666     C26.617,316,16,305.383,16,292.333V159.667C16,146.617,26.617,136,39.666,136h232.667c13.05,0,23.667,10.617,23.667,23.667     v40.216c0,5.523-4.478,10-10,10h-46.334c-2.021,0-3.666,1.645-3.666,3.667V306c0,5.522-4.477,10-10,10h-75.549L74.65,351.188     C73.308,351.811,71.871,352.117,70.44,352.117z M39.666,156c-2.021,0-3.666,1.645-3.666,3.667v132.667     c0,2.022,1.645,3.667,3.666,3.667h34.611c2.836,0,5.539,1.204,7.435,3.313c1.896,2.109,2.809,4.924,2.509,7.744l-1.971,18.553     l61.783-28.68c1.319-0.612,2.756-0.93,4.21-0.93H216v-82.451c0-13.05,10.617-23.667,23.666-23.667H276v-30.216     c0-2.022-1.645-3.667-3.667-3.667H39.666z"/></g><g><path d="M441.56,406c-1.431,0-2.867-0.307-4.21-0.93l-75.802-35.188H239.666c-13.049,0-23.666-10.617-23.666-23.667V213.549     c0-13.05,10.617-23.667,23.666-23.667h232.667c13.05,0,23.667,10.617,23.667,23.667v132.667c0,13.05-10.617,23.667-23.667,23.667     h-23.491l2.594,24.41c0.096,0.555,0.145,1.125,0.145,1.707c0,5.519-4.47,9.993-9.986,10C441.582,406,441.57,406,441.56,406z      M239.666,209.882c-2.021,0-3.666,1.645-3.666,3.667v132.667c0,2.022,1.645,3.667,3.666,3.667h124.09     c1.454,0,2.892,0.317,4.211,0.93l61.783,28.681l-1.972-18.554c-0.3-2.82,0.612-5.635,2.509-7.744     c1.896-2.108,4.6-3.313,7.436-3.313h34.61c2.022,0,3.667-1.645,3.667-3.667V213.549c0-2.021-1.645-3.667-3.667-3.667H239.666z"/></g><g><path d="M291,306c-13.785,0-25-11.215-25-25s11.215-25,25-25s25,11.215,25,25S304.785,306,291,306z M291,276     c-2.757,0-5,2.243-5,5s2.243,5,5,5s5-2.243,5-5S293.757,276,291,276z"/></g><g><path d="M361,306c-13.785,0-25-11.215-25-25s11.215-25,25-25s25,11.215,25,25S374.785,306,361,306z M361,276     c-2.757,0-5,2.243-5,5s2.243,5,5,5s5-2.243,5-5S363.757,276,361,276z"/></g><g><path d="M431,306c-13.785,0-25-11.215-25-25s11.215-25,25-25s25,11.215,25,25S444.785,306,431,306z M431,276     c-2.757,0-5,2.243-5,5s2.243,5,5,5s5-2.243,5-5S433.757,276,431,276z"/></g><g><path d="M149.852,463.703c-3.655,0-7.02-1.994-8.773-5.201l-14.099-25.778l-25.778-14.099c-3.207-1.754-5.202-5.118-5.202-8.773     s1.995-7.02,5.202-8.773l25.778-14.099l14.099-25.778c1.754-3.207,5.118-5.201,8.773-5.201s7.02,1.994,8.773,5.201l14.099,25.778     l25.778,14.099c3.207,1.754,5.202,5.118,5.202,8.773s-1.995,7.02-5.202,8.773l-25.778,14.099l-14.099,25.778     C156.871,461.709,153.507,463.703,149.852,463.703z M126.84,409.852l12.306,6.73c1.678,0.918,3.058,2.297,3.975,3.975     l6.73,12.307l6.73-12.307c0.917-1.678,2.297-3.057,3.975-3.975l12.306-6.73l-12.306-6.73c-1.678-0.918-3.058-2.297-3.975-3.975     l-6.73-12.307l-6.73,12.307c-0.917,1.678-2.297,3.057-3.975,3.975L126.84,409.852z"/></g><g><path d="M379.852,176c-3.655,0-7.02-1.995-8.773-5.202l-14.099-25.778l-25.778-14.099c-3.207-1.754-5.201-5.118-5.201-8.773     s1.994-7.02,5.201-8.773l25.778-14.099l14.099-25.778c1.754-3.207,5.118-5.202,8.773-5.202s7.02,1.995,8.773,5.202l14.099,25.778     l25.778,14.099c3.207,1.754,5.201,5.118,5.201,8.773s-1.994,7.02-5.201,8.773l-25.778,14.099l-14.099,25.778     C386.871,174.005,383.507,176,379.852,176z M356.84,122.148l12.307,6.73c1.678,0.917,3.057,2.297,3.975,3.975l6.73,12.306     l6.73-12.306c0.918-1.678,2.297-3.058,3.975-3.975l12.307-6.73l-12.307-6.73c-1.678-0.917-3.057-2.297-3.975-3.975l-6.73-12.306     l-6.73,12.306c-0.918,1.678-2.297,3.058-3.975,3.975L356.84,122.148z"/></g><g><path d="M331,496c-19.299,0-35-15.701-35-35s15.701-35,35-35s35,15.701,35,35S350.299,496,331,496z M331,446     c-8.271,0-15,6.729-15,15s6.729,15,15,15s15-6.729,15-15S339.271,446,331,446z"/></g><g><path d="M121,86c-19.299,0-35-15.701-35-35s15.701-35,35-35s35,15.701,35,35S140.299,86,121,86z M121,36c-8.271,0-15,6.729-15,15     s6.729,15,15,15s15-6.729,15-15S129.271,36,121,36z"/></g></g></g><text x="0" y="527" fill="#000000" font-size="5px" font-weight="bold" font-family="'Helvetica Neue', Helvetica, Arial-Unicode, Arial, Sans-serif">Created by Flatart</text><text x="0" y="532" fill="#000000" font-size="5px" font-weight="bold" font-family="'Helvetica Neue', Helvetica, Arial-Unicode, Arial, Sans-serif">from the Noun Project</text></svg>
