<svg xmlns="http://www.w3.org/2000/svg" data-name="Layer 1" viewBox="0 0 100 125" x="0px" y="0px" fill="ghostwhite"><title>Noun_Project_10Icon_10px_grid</title><path d="M65.34,20.86A5.74,5.74,0,0,1,70.48,26,.75.75,0,1,0,72,26a5.74,5.74,0,0,1,5.14-5.14.75.75,0,0,0,0-1.5A5.74,5.74,0,0,1,72,14.22a.75.75,0,1,0-1.5,0,5.74,5.74,0,0,1-5.14,5.14.75.75,0,0,0,0,1.5ZM71.23,17a7.87,7.87,0,0,0,3.12,3.12,7.88,7.88,0,0,0-3.12,3.12,7.88,7.88,0,0,0-3.12-3.12A7.87,7.87,0,0,0,71.23,17Z"/><path d="M17.64,65a5.42,5.42,0,0,1-4.86-4.86.75.75,0,0,0-1.5,0A5.42,5.42,0,0,1,6.42,65a.75.75,0,0,0,0,1.5,5.42,5.42,0,0,1,4.86,4.86.75.75,0,0,0,1.5,0,5.42,5.42,0,0,1,4.86-4.86.75.75,0,0,0,0-1.5ZM12,68.7a7.56,7.56,0,0,0-2.9-2.9A7.55,7.55,0,0,0,12,62.9a7.56,7.56,0,0,0,2.9,2.9A7.56,7.56,0,0,0,12,68.7Z"/><path d="M16.41,52.51a10.69,10.69,0,0,0,6.18,2,10.91,10.91,0,0,0,1.86-.16A10.74,10.74,0,0,0,32.28,39a17.42,17.42,0,0,0,2.86-1.72.75.75,0,0,0-.89-1.21,15.49,15.49,0,0,1-2.73,1.62A10.76,10.76,0,1,0,16.41,52.51ZM21,34.59a9.24,9.24,0,0,1,9.07,3.69c-6,2.1-12.07,0-14.26-.87A9.19,9.19,0,0,1,21,34.59Zm-6.16,4a24.29,24.29,0,0,0,9.59,2.1A18.25,18.25,0,0,0,30.9,39.6a9.26,9.26,0,1,1-16-1Z"/><path d="M22.56,49.34a6.13,6.13,0,0,0,5-2.54.75.75,0,0,0-1.22-.88,4.64,4.64,0,0,1-6.47,1A.75.75,0,1,0,19,48.18,6.1,6.1,0,0,0,22.56,49.34Z"/><path d="M34.8,78.39a4.63,4.63,0,0,1-6.44-1.2.75.75,0,0,0-1.24.85,6.1,6.1,0,0,0,3.93,2.56,6.21,6.21,0,0,0,1.14.11,6.09,6.09,0,0,0,3.46-1.08.75.75,0,1,0-.85-1.24Z"/><path d="M41.8,70.52a10.75,10.75,0,0,0-7.64-6,4.12,4.12,0,1,0-8,1.53l-.32.2a10.67,10.67,0,0,0-4.25,6.2h0c-.06.24-.12.48-.16.72a10.76,10.76,0,0,0,8.73,12.46,10.75,10.75,0,0,0,11.63-15.1ZM27.45,64.09a2.62,2.62,0,0,1,5.2.24,10.64,10.64,0,0,0-5.12,1A2.61,2.61,0,0,1,27.45,64.09Zm-.71,3.39A9.2,9.2,0,0,1,32,65.8a9.36,9.36,0,0,1,1.63.14,9.24,9.24,0,0,1,6.61,4.87c-2.69,2.85-12.39,2-16.95,1.2A9.19,9.19,0,0,1,26.74,67.48Zm14.44,9.19a9.26,9.26,0,0,1-18.25-3.2,58.1,58.1,0,0,0,9.11.82c3.43,0,6.89-.46,8.84-2A9.2,9.2,0,0,1,41.18,76.67Z"/><path d="M69.18,79.53a6.13,6.13,0,0,0,4.88-2.4.75.75,0,0,0-1.19-.91,4.64,4.64,0,0,1-6.5.86.75.75,0,1,0-.91,1.19A6.1,6.1,0,0,0,69.18,79.53Z"/><path d="M83.6,66.25l-6.06.87A10.74,10.74,0,0,0,68,63.22,2.74,2.74,0,0,0,62.88,65a.72.72,0,0,0,.06.14,10.77,10.77,0,1,0,15.57,3.33l5.31-.76a.75.75,0,0,0-.21-1.48ZM64.45,63.7a1.23,1.23,0,0,1,2-.18,10.69,10.69,0,0,0-2.15.83A1.21,1.21,0,0,1,64.45,63.7ZM61.8,68.36a9.2,9.2,0,0,1,6.1-3.62,9.23,9.23,0,0,1,7.86,2.63L61.1,69.47A9.37,9.37,0,0,1,61.8,68.36Zm16.58,4.24a9.26,9.26,0,1,1-18-1.5l16.49-2.37A9.21,9.21,0,0,1,78.39,72.59Z"/><path d="M89.65,34.51a10.6,10.6,0,0,0-7.71-2.9A10.74,10.74,0,0,0,72.85,47.5L72.3,52a3.24,3.24,0,0,0,3.27,3.72h.13l14.08-.47a3.24,3.24,0,0,0,3.15-3.94l-.85-4.46a10.75,10.75,0,0,0-2.42-12.36Zm1.91,7.55h0a9.26,9.26,0,1,1-18.48-.49c2.46-.11,10.94-.94,13.45-7.37a.7.7,0,0,0,0-.07,9.31,9.31,0,0,1,2.09,1.47A9.2,9.2,0,0,1,91.56,42.06ZM82,33.11h.32a9.23,9.23,0,0,1,2.88.47.71.71,0,0,0-.06.09c-2.06,5.28-9.24,6.22-11.79,6.39A9.27,9.27,0,0,1,82,33.11Zm9.46,18.5a1.75,1.75,0,0,1-1.72,2.16l-14.08.47a1.79,1.79,0,0,1-1.43-.56,1.81,1.81,0,0,1-.43-1.48l.35-2.83a10.75,10.75,0,0,0,8.16,3.76h.37a10.69,10.69,0,0,0,7.5-3.4,10.92,10.92,0,0,0,.76-.91Z"/><path d="M85.68,45.05a4.64,4.64,0,0,1-6.55.15.75.75,0,0,0-1,1.08,6.14,6.14,0,0,0,8.67-.2.75.75,0,1,0-1.08-1Z"/><path d="M64.53,45.27a10.75,10.75,0,1,0-10.64,9.21A10.77,10.77,0,0,0,64.53,45.27ZM53.88,34.46A9.27,9.27,0,0,1,63,45.05c0,.25-.09.5-.15.74a14.77,14.77,0,0,0-18.25-2.69c0-.24,0-.48.07-.73A9.28,9.28,0,0,1,53.88,34.46ZM52.54,52.88a9.27,9.27,0,0,1-7.85-8.08l.1,0c.38-.26,9.32-6.26,17.54,2.59l0,0A9.27,9.27,0,0,1,52.54,52.88Z"/><path d="M56.72,47a4.64,4.64,0,0,1-6.47-1,.75.75,0,0,0-1.21.88,6.1,6.1,0,0,0,4,2.45,6.28,6.28,0,0,0,1,.07,6.09,6.09,0,0,0,3.6-1.18A.75.75,0,1,0,56.72,47Z"/><path d="M52.34,67.09h-1V65.77a.75.75,0,0,0-1.5,0v1.33h-1a.75.75,0,0,0,0,1.5h1v1.33a.75.75,0,0,0,1.5,0V68.59h1a.75.75,0,1,0,0-1.5Z"/><path d="M50.64,62.75a.75.75,0,0,0,.75-.75V60.19a.75.75,0,0,0-1.5,0V62A.75.75,0,0,0,50.64,62.75Z"/><path d="M33.52,28.42h1v1.33a.75.75,0,0,0,1.5,0V28.42h1a.75.75,0,0,0,0-1.5H36V25.59a.75.75,0,1,0-1.5,0v1.33h-1a.75.75,0,0,0,0,1.5Z"/><path d="M89.62,75.17h-1V73.85a.75.75,0,0,0-1.5,0v1.33h-1a.75.75,0,0,0,0,1.5h1V78a.75.75,0,1,0,1.5,0V76.67h1a.75.75,0,0,0,0-1.5Z"/><text x="0" y="115" fill="#000000" font-size="5px" font-weight="bold" font-family="'Helvetica Neue', Helvetica, Arial-Unicode, Arial, Sans-serif">Created by Emily Van den heever</text><text x="0" y="120" fill="#000000" font-size="5px" font-weight="bold" font-family="'Helvetica Neue', Helvetica, Arial-Unicode, Arial, Sans-serif">from the Noun Project</text></svg>
