<svg xmlns="http://www.w3.org/2000/svg" data-name="Layer 1" viewBox="0 0 100 125" x="0px" y="0px" fill="ghostwhite"><title>Artboard 28</title><path d="M98.7,79.88v-59a3.77,3.77,0,0,0-3.77-3.77h-7.4V9.78A2.5,2.5,0,0,0,85,7.28H69.57A28.77,28.77,0,0,0,50,15,28.77,28.77,0,0,0,30.43,7.28H15a2.5,2.5,0,0,0-2.5,2.5v7.37H5.07A3.77,3.77,0,0,0,1.3,20.92v59a3.77,3.77,0,0,0,3.77,3.77H29.73a14.77,14.77,0,0,1,11,4.92l.36.38a12.55,12.55,0,0,0,1.45,1.28c.2.15.41.3.61.42a12.43,12.43,0,0,0,1.4.8l.28.13c.26.13.52.24.8.34a10.38,10.38,0,0,0,1,.33c.25.07.57.16.94.23a11.71,11.71,0,0,0,1.63.21l.76,0a12.33,12.33,0,0,0,2.44-.25c.32-.06.59-.13.73-.17a11.1,11.1,0,0,0,1.23-.38l.11,0,.62-.27.24-.11a12.31,12.31,0,0,0,1.53-.87l.51-.36a12.17,12.17,0,0,0,1.54-1.36l.15-.15.21-.23a14.48,14.48,0,0,1,11-4.87H94.93A3.77,3.77,0,0,0,98.7,79.88ZM17.47,12.28h13A23.76,23.76,0,0,1,47.5,19.53h0V23a2.5,2.5,0,1,0,5,0V19.54h0a23.76,23.76,0,0,1,17.07-7.25h13V67.42h-13A28.76,28.76,0,0,0,52.5,73.06V69a2.5,2.5,0,0,0-5,0v4.07a28.76,28.76,0,0,0-17.07-5.63h-13ZM93.7,78.65H70.27a19.48,19.48,0,0,0-14.73,6.59l-.08.08L57.28,87l-1.91-1.62a7.53,7.53,0,0,1-1,.84l-.29.2a7.65,7.65,0,0,1-1,.55l-.12.06-.4.17a6.64,6.64,0,0,1-.74.23l-.42.1a7.38,7.38,0,0,1-1.46.15l-.43,0a7.14,7.14,0,0,1-1-.13c-.2,0-.37-.08-.57-.14a5.79,5.79,0,0,1-.61-.19l-.44-.19L46.76,87a7.27,7.27,0,0,1-.86-.49l-.35-.24a7.77,7.77,0,0,1-.9-.79l-.18-.2a19.78,19.78,0,0,0-14.74-6.6H6.3V22.15h6.17V69.92a2.5,2.5,0,0,0,2.5,2.5H30.43a23.76,23.76,0,0,1,17.71,7.93,2.5,2.5,0,0,0,3.73,0,23.76,23.76,0,0,1,17.71-7.93H85a2.5,2.5,0,0,0,2.5-2.5V22.15H93.7Z"/><path d="M48.24,62a2.5,2.5,0,0,0,3.52,0L65.39,48.43a11.77,11.77,0,0,0,0-16.66c-.23-.23-.47-.45-.71-.65A11.21,11.21,0,0,0,50,31.57a11.2,11.2,0,0,0-14.69-.46c-.25.21-.48.43-.71.66a11.77,11.77,0,0,0,0,16.66ZM38.14,35.3c.13-.13.27-.26.42-.38a5.75,5.75,0,0,1,3.74-1.34,6.51,6.51,0,0,1,4.59,1.92l1.35,1.35a2.57,2.57,0,0,0,3.54,0l1.34-1.34a6.2,6.2,0,0,1,8.33-.58l.42.38a6.78,6.78,0,0,1,0,9.58L50,56.66,38.15,44.88a6.77,6.77,0,0,1,0-9.58Z"/><text x="0" y="115" fill="#000000" font-size="5px" font-weight="bold" font-family="'Helvetica Neue', Helvetica, Arial-Unicode, Arial, Sans-serif">Created by Gregor Cresnar</text><text x="0" y="120" fill="#000000" font-size="5px" font-weight="bold" font-family="'Helvetica Neue', Helvetica, Arial-Unicode, Arial, Sans-serif">from the Noun Project</text></svg>
