<svg xmlns="http://www.w3.org/2000/svg" xmlns:xlink="http://www.w3.org/1999/xlink" version="1.1" x="0px" y="0px" viewBox="0 0 100 125" enable-background="new 0 0 100 100" xml:space="preserve" fill="ghostwhite"><g><g><path fill="ghostwhite" d="M75.548,94.322L50.226,69H13c-4.411,0-8-3.589-8-8V13c0-4.411,3.589-8,8-8h74c4.411,0,8,3.589,8,8v48    c0,4.411-3.589,8-8,8H69.389l9.426,23.154c0.359,0.882,0.047,1.894-0.746,2.42c-0.338,0.225-0.723,0.334-1.105,0.334    C76.446,94.908,75.934,94.709,75.548,94.322z M13,9c-2.206,0-4,1.794-4,4v48c0,2.206,1.794,4,4,4h38.055    c0.53,0,1.039,0.211,1.414,0.586l18.909,18.909l-6.815-16.741c-0.251-0.616-0.179-1.317,0.193-1.87    C65.127,65.331,65.749,65,66.415,65H87c2.205,0,4-1.794,4-4V13c0-2.206-1.795-4-4-4H13z"/></g></g><g><path d="M64.406,56.362c-0.692,0-1.364-0.199-1.943-0.575c-0.178-0.116-4.246-2.791-8.516-6.396   c-6.1-5.151-9.879-9.831-11.232-13.909c-0.582-1.503-0.88-3.074-0.89-4.671c-0.001-0.038-0.002-0.075-0.002-0.098   c0-7.21,5.866-13.076,13.077-13.076c3.611,0,7.06,1.532,9.512,4.122c2.452-2.59,5.9-4.122,9.512-4.122   c7.21,0,13.076,5.866,13.076,13.076c0,0.119-0.006,0.238-0.019,0.356c-0.036,1.513-0.335,2.998-0.887,4.416   c-1.354,4.077-5.132,8.755-11.229,13.905c-4.051,3.422-7.788,5.917-8.496,6.383C65.77,56.163,65.099,56.362,64.406,56.362z"/></g><g><path d="M38.949,36.834c-0.728-1.915-1.105-3.915-1.123-5.949c-0.001-0.061-0.002-0.12-0.002-0.171   c0-5.21,2.353-9.876,6.044-13.011c-3.155,0.305-6.107,1.764-8.279,4.057c-2.453-2.59-5.9-4.122-9.511-4.122   c-7.21,0-13.077,5.866-13.075,13.147c0.006,1.606,0.305,3.187,0.89,4.698c1.354,4.079,5.132,8.758,11.231,13.908   c4.266,3.603,8.339,6.28,8.517,6.396c0.579,0.376,1.25,0.575,1.943,0.575c0.692,0,1.364-0.199,1.964-0.589   c0.708-0.466,4.443-2.961,8.495-6.383c0.345-0.292,0.681-0.582,1.011-0.87C42.867,44.376,40.195,40.522,38.949,36.834z"/></g><text x="0" y="115" fill="#000000" font-size="5px" font-weight="bold" font-family="'Helvetica Neue', Helvetica, Arial-Unicode, Arial, Sans-serif">Created by luca fruzza</text><text x="0" y="120" fill="#000000" font-size="5px" font-weight="bold" font-family="'Helvetica Neue', Helvetica, Arial-Unicode, Arial, Sans-serif">from the Noun Project</text></svg>
