<svg xmlns="http://www.w3.org/2000/svg" viewBox="0 0 64 80" x="0px" y="0px" fill="ghostwhite"><g data-name="Layer 7"><path d="M63,39A16.017,16.017,0,0,0,53,24.178V2a1,1,0,0,0-1-1H10A1,1,0,0,0,9,2V27H2a1,1,0,0,0-1,1V58a5.006,5.006,0,0,0,5,5H48a5.006,5.006,0,0,0,5-5V53.822A16.017,16.017,0,0,0,63,39ZM3,58V29H9V58a3,3,0,0,1-6,0Zm48,0a3,3,0,0,1-3,3H9.974A4.948,4.948,0,0,0,11,58V3H51V23.527a16,16,0,1,0,0,30.946Zm-4-5A14,14,0,1,1,61,39,14.015,14.015,0,0,1,47,53Z"/><path d="M57.707,36.707A1,1,0,0,0,58,36V34H56v1.586l-1.506,1.506A3.99,3.99,0,0,0,52,35.142V34a4.971,4.971,0,0,0-1.787-3.8l.08-.08A3.857,3.857,0,0,1,53,29V27a5.868,5.868,0,0,0-4.121,1.707l-.508.508a4.479,4.479,0,0,0-2.742,0l-.508-.508A5.868,5.868,0,0,0,41,27v2a3.857,3.857,0,0,1,2.707,1.121l.08.08A4.971,4.971,0,0,0,42,34v1.142a3.99,3.99,0,0,0-2.494,1.95L38,35.586V34H36v2a1,1,0,0,0,.293.707L39,39.414v2.172l-2.707,2.707A1,1,0,0,0,36,45v2h2V45.414l1-1V46a5.006,5.006,0,0,0,5,5h6a5.006,5.006,0,0,0,5-5V44.414l1,1V47h2V45a1,1,0,0,0-.293-.707L55,41.586V39.414ZM50,34v1H44V34a3,3,0,0,1,6,0ZM41,46V39a2,2,0,0,1,2-2h3V49H44A3,3,0,0,1,41,46Zm12,0a3,3,0,0,1-3,3H48V37h3a2,2,0,0,1,2,2Z"/><path d="M26,5H16a3,3,0,0,0-3,3V18a3,3,0,0,0,3,3H26a3,3,0,0,0,3-3V8A3,3,0,0,0,26,5Zm1,13a1,1,0,0,1-1,1H16a1,1,0,0,1-1-1V8a1,1,0,0,1,1-1H26a1,1,0,0,1,1,1Z"/><polygon points="24.293 8.293 21 11.586 17.707 8.293 16.293 9.707 19.586 13 16.293 16.293 17.707 17.707 21 14.414 24.293 17.707 25.707 16.293 22.414 13 25.707 9.707 24.293 8.293"/><path d="M26,23H16a3,3,0,0,0-3,3V36a3,3,0,0,0,3,3H26a3,3,0,0,0,3-3V26A3,3,0,0,0,26,23Zm1,13a1,1,0,0,1-1,1H16a1,1,0,0,1-1-1V26a1,1,0,0,1,1-1H26a1,1,0,0,1,1,1Z"/><polygon points="24.293 26.293 21 29.586 17.707 26.293 16.293 27.707 19.586 31 16.293 34.293 17.707 35.707 21 32.414 24.293 35.707 25.707 34.293 22.414 31 25.707 27.707 24.293 26.293"/><path d="M26,41H16a3,3,0,0,0-3,3V54a3,3,0,0,0,3,3H26a3,3,0,0,0,3-3V44A3,3,0,0,0,26,41Zm1,13a1,1,0,0,1-1,1H16a1,1,0,0,1-1-1V44a1,1,0,0,1,1-1H26a1,1,0,0,1,1,1Z"/><path d="M19,50.586l-1.293-1.293-1.414,1.414,2,2a1,1,0,0,0,1.414,0l6-6-1.414-1.414Z"/><rect x="31" y="17" width="18" height="2"/><rect x="35" y="13" width="14" height="2"/></g><text x="0" y="79" fill="#000000" font-size="5px" font-weight="bold" font-family="'Helvetica Neue', Helvetica, Arial-Unicode, Arial, Sans-serif">Created by nareerat jaikaew</text><text x="0" y="84" fill="#000000" font-size="5px" font-weight="bold" font-family="'Helvetica Neue', Helvetica, Arial-Unicode, Arial, Sans-serif">from the Noun Project</text></svg>
