<svg xmlns="http://www.w3.org/2000/svg" xmlns:xlink="http://www.w3.org/1999/xlink" xmlns:serif="http://www.serif.com/" viewBox="0 0 256 320" version="1.1" xml:space="preserve" style="" x="0px" y="0px" fill-rule="evenodd" clip-rule="evenodd" stroke-linejoin="round" stroke-miterlimit="2" fill="ghostwhite"><rect x="0" y="0" width="256" height="256" style="" fill="none"/><g serif:id="Cloud"><g transform="matrix(0.936,0,0,0.936,8.192,8.192)"><path d="M41.427,112.779C48.333,82.965 75.078,60.711 106.982,60.711C134.929,60.711 158.919,77.785 169.08,102.069C174.444,100.005 180.267,98.875 186.352,98.875C210.096,98.875 229.852,116.08 233.828,138.692C247.668,140.601 258.342,152.491 258.342,166.855C258.342,182.548 245.601,195.289 229.908,195.289C229.908,195.289 38.951,195.289 38.951,195.289C16.161,195.289 -2.342,176.786 -2.342,153.996C-2.342,131.205 16.161,112.702 38.951,112.702C39.783,112.702 40.608,112.727 41.427,112.779ZM44.729,123.931C46.156,124.204 47.633,123.884 48.819,123.044C50.005,122.205 50.798,120.919 51.015,119.482C55.125,92.275 78.635,71.395 106.982,71.395C132.276,71.395 153.717,88.02 160.966,110.934C161.446,112.451 162.578,113.675 164.053,114.273C165.528,114.871 167.192,114.78 168.593,114.025C173.882,111.174 179.93,109.559 186.352,109.559C206.087,109.559 222.286,124.825 223.765,144.185C223.983,147.041 226.416,149.217 229.28,149.116C229.488,149.109 229.697,149.105 229.908,149.105C239.705,149.105 247.658,157.059 247.658,166.855C247.658,176.652 239.705,184.605 229.908,184.605L38.951,184.605C22.058,184.605 8.342,170.889 8.342,153.996C8.342,137.102 22.058,123.386 38.951,123.386C40.926,123.386 42.857,123.573 44.729,123.931Z"/></g></g><text x="0" y="271" fill="#000000" font-size="5px" font-weight="bold" font-family="'Helvetica Neue', Helvetica, Arial-Unicode, Arial, Sans-serif">Created by Andri Graphic</text><text x="0" y="276" fill="#000000" font-size="5px" font-weight="bold" font-family="'Helvetica Neue', Helvetica, Arial-Unicode, Arial, Sans-serif">from the Noun Project</text></svg>
