<svg xmlns="http://www.w3.org/2000/svg" xmlns:xlink="http://www.w3.org/1999/xlink" version="1.0" x="0px" y="0px" viewBox="0 0 100 125" enable-background="new 0 0 100 100" xml:space="preserve" fill="ghostwhite"><g><g><path d="M33.8554688,40.4033203c0.0830078,0.0146484,0.1669922,0.0214844,0.2519531,0.0214844h31.5014648    c4.8662109,0,8.8251953-3.9589844,8.8251953-8.8251953c0-4.1904297-2.9829102-7.7421875-6.9379883-8.6152344    c0.0458984-0.3925781,0.0683594-0.7822266,0.0683594-1.171875c0-6.03125-4.9067383-10.9375-10.9375-10.9375    c-3.3325195,0-6.4384766,1.5117188-8.4941406,4.0449219c-1.7119141-1.5029297-3.8999023-2.3369141-6.2353516-2.3369141    c-5.2382812,0-9.5,4.2617188-9.5,9.5c0,0.3330078,0.0185547,0.6669922,0.0561523,1.0019531    c-3.9282227,0.8701172-6.8876953,4.3964844-6.8876953,8.5644531C25.565918,36.34375,29.1904297,40.1503906,33.8554688,40.4033203z     M34.2666016,25.8798828c0.4716797-0.0058594,0.9130859-0.2333984,1.1914062-0.6142578    c0.2788086-0.3808594,0.3618164-0.8701172,0.2246094-1.3212891c-0.1889648-0.6240234-0.2851562-1.25-0.2851562-1.8613281    c0-3.5839844,2.9160156-6.5,6.5-6.5c2.0644531,0,3.9619141,0.9560547,5.2060547,2.6230469    c0.1606445,0.2148438,0.3964844,0.3916016,0.644043,0.4951172c0.7080078,0.2978516,1.5302734,0.0097656,1.8974609-0.6679688    C51.0371094,15.4677734,53.7124023,13.875,56.6269531,13.875c4.3769531,0,7.9375,3.5605469,7.9375,7.9375    c0,0.6679688-0.0961914,1.3466797-0.2939453,2.0742188c-0.1210938,0.4472656-0.0292969,0.9257812,0.2495117,1.2958984    c0.2783203,0.3701172,0.7124023,0.5908203,1.1757812,0.5976562c3.1640625,0.046875,5.7382812,2.6572266,5.7382812,5.8193359    c0,3.2119141-2.6132812,5.8251953-5.8251953,5.8251953H34.2949219c-0.0458984-0.0058594-0.0927734-0.0097656-0.1396484-0.0107422    c-3.1342773-0.0996094-5.5893555-2.6318359-5.5893555-5.7646484    C28.565918,28.5078125,31.1230469,25.9189453,34.2666016,25.8798828z"/><circle cx="20.7398682" cy="35.284668" r="2"/><circle cx="16.53125" cy="41.7436523" r="2"/><circle cx="18.7398682" cy="49.0198975" r="2"/><circle cx="79.2601318" cy="35.284668" r="2"/><circle cx="83.46875" cy="41.7436523" r="2"/><circle cx="81.2601318" cy="49.0198975" r="2"/><path d="M30.0024414,63.0473633c3.8598633,0,7-3.1401367,7-7s-3.1401367-7-7-7s-7,3.1401367-7,7    S26.1425781,63.0473633,30.0024414,63.0473633z M30.0024414,52.0473633c2.2055664,0,4,1.7944336,4,4s-1.7944336,4-4,4    s-4-1.7944336-4-4S27.796875,52.0473633,30.0024414,52.0473633z"/><path d="M62.9970703,56.0473633c0,3.8598633,3.140625,7,7,7s7-3.1401367,7-7s-3.140625-7-7-7    S62.9970703,52.1875,62.9970703,56.0473633z M73.9970703,56.0473633c0,2.2055664-1.7939453,4-4,4s-4-1.7944336-4-4    s1.7939453-4,4-4S73.9970703,53.8417969,73.9970703,56.0473633z"/><path d="M41.7060547,59.1479492c0,4.5737305,3.7207031,8.2944336,8.2939453,8.2944336    s8.2939453-3.7207031,8.2939453-8.2944336c0-4.5732422-3.7207031-8.2939453-8.2939453-8.2939453    S41.7060547,54.574707,41.7060547,59.1479492z M55.2939453,59.1479492c0,2.9194336-2.375,5.2944336-5.2939453,5.2944336    s-5.2939453-2.375-5.2939453-5.2944336c0-2.9189453,2.375-5.2939453,5.2939453-5.2939453    S55.2939453,56.2290039,55.2939453,59.1479492z"/><path d="M70.0761719,65.8808594h-0.1572266c-5.376709,0-10.0025635,3.2575684-12.0202637,7.9003906    C55.5820312,72.4013672,52.8867798,71.59375,50,71.59375s-5.5820923,0.8076172-7.8987427,2.1876221    c-2.0177612-4.6429443-6.6439819-7.9005127-12.0206909-7.9005127h-0.15625    c-7.2255859,0-13.1040039,5.878418-13.1040039,13.1040039v3.5625c0,0.8286133,0.6713867,1.5,1.5,1.5s1.5-0.6713867,1.5-1.5    v-3.5625c0-5.5712891,4.5327148-10.1040039,10.1040039-10.1040039h0.15625c4.3951416,0,8.1335449,2.8259277,9.5204468,6.7521973    C36.4766846,78.4707031,34.5,82.5505371,34.5,87.09375c0,0.8286133,0.6713867,1.5,1.5,1.5s1.5-0.6713867,1.5-1.5    c0-2.9367676,1.0245972-5.6347656,2.7261963-7.7705078c0.7852783-0.9858398,1.7107544-1.8544922,2.7544556-2.5654297    C44.9831543,75.3935547,47.3995361,74.59375,50,74.59375s5.0167847,0.7998047,7.0192871,2.1640625    c1.0628662,0.7241211,2.0018311,1.6125488,2.7961426,2.6209717C61.4910889,81.5059814,62.5,84.1818848,62.5,87.09375    c0,0.8286133,0.671875,1.5,1.5,1.5s1.5-0.6713867,1.5-1.5c0-4.5432129-1.9766846-8.6230469-5.1010742-11.4606934    c1.3868408-3.9262695,5.1248779-6.7521973,9.5200195-6.7521973h0.1572266c5.5712891,0,10.1035156,4.5327148,10.1035156,10.1040039    v3.5625c0,0.8286133,0.671875,1.5,1.5,1.5s1.5-0.6713867,1.5-1.5v-3.5625    C83.1796875,71.7592773,77.3017578,65.8808594,70.0761719,65.8808594z"/></g></g><text x="0" y="115" fill="#000000" font-size="5px" font-weight="bold" font-family="'Helvetica Neue', Helvetica, Arial-Unicode, Arial, Sans-serif">Created by Yu luck</text><text x="0" y="120" fill="#000000" font-size="5px" font-weight="bold" font-family="'Helvetica Neue', Helvetica, Arial-Unicode, Arial, Sans-serif">from the Noun Project</text></svg>
