<svg xmlns="http://www.w3.org/2000/svg" xmlns:xlink="http://www.w3.org/1999/xlink" version="1.1" x="0px" y="0px" viewBox="0 0 56 70" style="enable-background:new 0 0 56 56;" xml:space="preserve" fill="ghostwhite"><path d="M11.0249023,48.8642578c2.7666016,0.0068359,5.5317383,0.0058594,8.2988281,0.0039062l3.7319336-0.0019531  l3.6889648,0.0029297c1.230957,0.0009766,2.4614258,0.0029297,3.6923828,0.0029297  c1.6928711,0,3.3852539-0.0029297,5.0776367-0.0117188c3.706543-0.0185547,6.7675781-2.4882812,7.6171875-6.1455078  c0.8217773-3.5361328-0.918457-7.1816406-4.230957-8.8662109c-0.2553711-0.1308594-0.5488281-0.4521484-0.6826172-0.7480469  c-1.8466797-4.0830078-6.128418-6.234375-10.4140625-5.234375c-0.2880859,0.0654297-0.324707,0.0751953-0.5913086-0.203125  c-3.0854492-3.2089844-6.9267578-4.2460938-11.1083984-3.0039062c-4.1098633,1.2226562-6.7529297,4.1992188-7.6420898,8.6074219  c-0.0273438,0.1337891-0.0498047,0.1894531-0.0478516,0.1943359C8.3999023,33.4716797,8.3530273,33.5,8.2407227,33.5410156  c-3.7055664,1.3798828-5.8056641,5.046875-5.1074219,8.9169922C3.8115234,46.21875,7.0566406,48.8535156,11.0249023,48.8642578z   M8.9394531,35.4150391c0.8671875-0.3232422,1.296875-0.8310547,1.4833984-1.7519531  c0.7441406-3.6904297,2.8476562-6.0742188,6.2519531-7.0869141c3.4667969-1.0292969,6.5273438-0.1982422,9.0961914,2.4726562  c0.7387695,0.7685547,1.4819336,0.9970703,2.4873047,0.7646484c3.3422852-0.7783203,6.6894531,0.9101562,8.1376953,4.1113281  c0.3227539,0.7148438,0.9350586,1.3681641,1.5976562,1.7060547c2.4912109,1.2666016,3.8027344,3.9941406,3.1899414,6.6308594  c-0.6455078,2.7792969-2.8745117,4.5839844-5.6791992,4.5986328c-2.9189453,0.015625-5.8378906,0.0117188-8.7573242,0.0087891  l-3.6914062-0.0029297l-3.7333984,0.0019531c-2.7646484,0.0019531-5.5288086,0.0029297-8.2919922-0.0039062  c-3.0341797-0.0087891-5.4165039-1.921875-5.9291992-4.7617188C4.578125,39.2011719,6.1557617,36.4521484,8.9394531,35.4150391z"/><path d="M52.8427734,21.3417969c0.6411133-2.7617188-0.7158203-5.6074219-3.2998047-6.9208984  c-0.1235352-0.0625-0.3125-0.2539062-0.3959961-0.4394531c-1.4331055-3.1669922-4.7558594-4.8408203-8.0854492-4.0615234  c-0.0512695,0.0117188-0.0844727,0.0166016-0.0942383,0.0205078c-0.019043-0.0146484-0.0546875-0.0439453-0.1098633-0.1015625  c-2.3808594-2.4755859-5.3461914-3.2744141-8.5712891-2.3164062c-3.1733398,0.9433594-5.2128906,3.2382812-5.8979492,6.6376953  c-0.0014648,0.0058594-0.0029297,0.0126953-0.0039062,0.0185547c-0.0014648,0.0009766-0.0024414,0.0009766-0.0039062,0.0009766  c-2.890625,1.0771484-4.5288086,3.9384766-3.984375,6.9580078c0.5297852,2.9365234,3.0615234,4.9951172,6.1567383,5.0039062  c2.2124023,0.0058594,4.4272461,0.0039062,6.640625,0.0019531l2.3696289-0.0009766l2.796875,0.0019531  c0.9331055,0.0009766,1.8657227,0.0019531,2.7988281,0.0019531c1.2451172,0,2.4907227-0.0019531,3.7363281-0.0078125  C49.7890625,26.1240234,52.1791992,24.1962891,52.8427734,21.3417969z M40.3623047,24.1445312l-2.7993164-0.0019531  c0,0,0,0-0.0004883,0l-2.3706055,0.0009766c-2.2124023,0.0019531-4.4228516,0.0029297-6.6337891-0.0019531  c-2.1469727-0.0068359-3.8325195-1.3564453-4.1938477-3.359375c-0.3759766-2.0830078,0.7148438-3.9833984,2.715332-4.7285156  c0.722168-0.2695312,1.1132812-0.7314453,1.269043-1.4980469c0.5375977-2.6650391,2.0537109-4.3867188,4.5073242-5.1152344  c2.4990234-0.7451172,4.7060547-0.1435547,6.5600586,1.7851562c0.6147461,0.6386719,1.262207,0.8359375,2.0996094,0.6416016  c2.3862305-0.5595703,4.7749023,0.6513672,5.809082,2.9384766c0.2646484,0.5859375,0.7675781,1.1210938,1.3120117,1.3984375  c1.762207,0.8955078,2.6904297,2.8222656,2.2578125,4.6845703c-0.456543,1.9638672-2.0307617,3.2392578-4.0097656,3.25  C44.7104492,24.1484375,42.5351562,24.1464844,40.3623047,24.1445312z"/><text x="0" y="71" fill="#000000" font-size="5px" font-weight="bold" font-family="'Helvetica Neue', Helvetica, Arial-Unicode, Arial, Sans-serif">Created by DinosoftLab</text><text x="0" y="76" fill="#000000" font-size="5px" font-weight="bold" font-family="'Helvetica Neue', Helvetica, Arial-Unicode, Arial, Sans-serif">from the Noun Project</text></svg>
