<svg xmlns="http://www.w3.org/2000/svg" xmlns:xlink="http://www.w3.org/1999/xlink" version="1.1" x="0px" y="0px" viewBox="0 0 64 80" enable-background="new 0 0 64 64" xml:space="preserve" fill="ghostwhite"><path d="M62.413,10.585C62.035,10.208,61.533,10,61,10H33V9c0-0.801-0.313-1.555-0.879-2.121C31.555,6.312,30.801,6,30,6h-6  c-0.267,0-0.518-0.104-0.707-0.293S23,5.267,23,5s0.104-0.518,0.293-0.707S23.733,4,24,4h12c0.802,0,1.556-0.313,2.122-0.879  S39,1.8,39,1V0h-2v1c0,0.267-0.104,0.518-0.294,0.708C36.518,1.896,36.268,2,36,2H24c-0.801,0-1.555,0.312-2.121,0.879  C21.312,3.445,21,4.199,21,5s0.312,1.555,0.879,2.121C22.445,7.688,23.199,8,24,8h6c0.267,0,0.518,0.104,0.707,0.293S31,8.733,31,9  v1H3c-0.534,0-1.036,0.208-1.414,0.586S1,11.466,1,12v22c0,0.533,0.208,1.035,0.585,1.413C1.962,35.792,2.465,36,3,36h4v10.182l3,8  v2.095c-0.148,0.087-0.291,0.186-0.415,0.311C9.208,56.965,9,57.467,9,58v6h2v-6h12v6h2v-6c0-0.533-0.208-1.035-0.585-1.413  c-0.125-0.125-0.267-0.224-0.415-0.311v-1.873c1.121-1.19,5-5.586,5-9.382V40c0-0.802-0.313-1.556-0.879-2.122  c-0.815-0.814-2.062-1.033-3.121-0.677V36h14v1.202c-1.06-0.356-2.307-0.138-3.121,0.677C35.313,38.445,35,39.199,35,40v5.021  c0,3.796,3.879,8.191,5,9.382v1.873c-0.148,0.087-0.29,0.186-0.414,0.31C39.208,56.964,39,57.466,39,58v6h2v-6h12v6h2v-6  c0-0.534-0.208-1.036-0.586-1.414c-0.124-0.124-0.266-0.223-0.414-0.31v-2.095l3-8V36h4c0.534,0,1.036-0.208,1.414-0.586  S63,34.534,63,34V12C63,11.465,62.792,10.962,62.413,10.585z M25.292,39.294c0.379-0.379,1.036-0.379,1.415,0  C26.896,39.482,27,39.732,27,40v5.021c0,2.917-3.398,6.96-4.708,8.271L22,53.586V56H12v-2.182l-3-8V33  c0-0.267,0.104-0.518,0.293-0.707c0.378-0.378,1.036-0.378,1.414,0C10.896,32.482,11,32.733,11,33v6h2v-6v-2  c0-0.267,0.104-0.518,0.293-0.707c0.378-0.378,1.036-0.378,1.414,0C14.896,30.482,15,30.733,15,31v8h2v-8v-2  c0-0.267,0.104-0.518,0.293-0.707c0.378-0.378,1.036-0.378,1.414,0C18.896,28.482,19,28.733,19,29v2v8h2v-8  c0-0.267,0.104-0.518,0.293-0.707c0.378-0.378,1.036-0.378,1.414,0C22.896,30.482,23,30.733,23,31v13h2v-4  C25,39.732,25.104,39.482,25.292,39.294z M55,45.818l-3,8V56H42v-2.414l-0.293-0.293C40.398,51.981,37,47.938,37,45.021V40  c0-0.267,0.104-0.518,0.293-0.707c0.379-0.377,1.035-0.377,1.414,0C38.896,39.482,39,39.733,39,40v4h2V31  c0-0.267,0.104-0.518,0.294-0.708c0.377-0.377,1.035-0.377,1.412,0C42.896,30.482,43,30.733,43,31v8h2v-8v-2  c0-0.267,0.104-0.518,0.294-0.708c0.377-0.377,1.035-0.377,1.412,0C46.896,28.482,47,28.733,47,29v2v8h2v-8  c0-0.267,0.104-0.518,0.294-0.708c0.377-0.377,1.035-0.377,1.412,0C50.896,30.482,51,30.733,51,31v2v6h2v-6  c0-0.267,0.104-0.518,0.294-0.708c0.377-0.377,1.035-0.377,1.412,0C54.896,32.482,55,32.733,55,33V45.818z M61,34h-4v-1  c0-0.8-0.312-1.554-0.878-2.121c-0.842-0.843-2.151-1.057-3.233-0.646c-0.134-0.506-0.387-0.974-0.767-1.354  c-0.842-0.843-2.151-1.057-3.233-0.646c-0.134-0.506-0.387-0.974-0.767-1.354c-1.133-1.134-3.111-1.134-4.244,0  c-0.38,0.38-0.633,0.848-0.767,1.354c-1.082-0.411-2.391-0.197-3.233,0.646C39.312,29.446,39,30.2,39,31v3H25v-3  c0-0.801-0.312-1.555-0.879-2.121c-0.842-0.843-2.151-1.057-3.232-0.646c-0.134-0.506-0.387-0.974-0.768-1.354  c-1.133-1.134-3.109-1.134-4.242,0c-0.38,0.38-0.634,0.848-0.768,1.354c-1.082-0.411-2.39-0.197-3.232,0.646  c-0.38,0.38-0.634,0.848-0.768,1.354c-1.082-0.411-2.39-0.197-3.232,0.646C7.312,31.445,7,32.199,7,33v1H3V12h58V34z"/><rect x="43" y="60" width="2" height="2"/><rect x="19" y="60" width="2" height="2"/><rect x="7" y="14" width="2" height="2"/><rect x="11" y="14" width="2" height="2"/><rect x="15" y="14" width="2" height="2"/><rect x="19" y="14" width="2" height="2"/><rect x="23" y="14" width="2" height="2"/><rect x="27" y="14" width="2" height="2"/><rect x="31" y="14" width="2" height="2"/><rect x="35" y="14" width="2" height="2"/><rect x="39" y="14" width="2" height="2"/><rect x="43" y="14" width="2" height="2"/><rect x="47" y="14" width="2" height="2"/><rect x="51" y="14" width="2" height="2"/><rect x="55" y="14" width="2" height="2"/><rect x="5" y="18" width="2" height="2"/><rect x="9" y="18" width="2" height="2"/><rect x="13" y="18" width="2" height="2"/><rect x="17" y="18" width="2" height="2"/><rect x="21" y="18" width="2" height="2"/><rect x="25" y="18" width="2" height="2"/><rect x="29" y="18" width="2" height="2"/><rect x="33" y="18" width="2" height="2"/><rect x="37" y="18" width="2" height="2"/><rect x="41" y="18" width="2" height="2"/><rect x="45" y="18" width="2" height="2"/><rect x="49" y="18" width="2" height="2"/><rect x="53" y="18" width="2" height="2"/><rect x="57" y="18" width="2" height="2"/><rect x="7" y="22" width="2" height="2"/><rect x="11" y="22" width="2" height="2"/><rect x="15" y="22" width="2" height="2"/><rect x="19" y="22" width="2" height="2"/><rect x="23" y="22" width="2" height="2"/><rect x="27" y="22" width="2" height="2"/><rect x="31" y="22" width="2" height="2"/><rect x="35" y="22" width="2" height="2"/><rect x="39" y="22" width="2" height="2"/><rect x="43" y="22" width="2" height="2"/><rect x="47" y="22" width="2" height="2"/><rect x="51" y="22" width="2" height="2"/><rect x="55" y="22" width="2" height="2"/><rect x="5" y="26" width="2" height="2"/><rect x="9" y="26" width="2" height="2"/><rect x="25" y="26" width="2" height="2"/><rect x="29" y="26" width="2" height="2"/><rect x="33" y="26" width="2" height="2"/><rect x="37" y="26" width="2" height="2"/><rect x="53" y="26" width="2" height="2"/><rect x="57" y="26" width="2" height="2"/><rect x="27" y="30" width="10" height="2"/><text x="0" y="79" fill="#000000" font-size="5px" font-weight="bold" font-family="'Helvetica Neue', Helvetica, Arial-Unicode, Arial, Sans-serif">Created by Maxim Basinski</text><text x="0" y="84" fill="#000000" font-size="5px" font-weight="bold" font-family="'Helvetica Neue', Helvetica, Arial-Unicode, Arial, Sans-serif">from the Noun Project</text></svg>
