<svg xmlns="http://www.w3.org/2000/svg" viewBox="0 0 90 74.0125" x="0px" y="0px" fill="ghostwhite"><title>PI 3B+</title><g data-name="Layer 2"><g><polygon points="27.42 21.45 35.12 25.18 35.12 24.25 28.21 20.9 27.42 21.45"/><polygon points="40.37 19.71 35.56 24.2 35.56 25.18 41.45 19.86 40.37 19.71"/><circle cx="33.64" cy="16.26" r="0.37"/><polygon points="71.65 31.11 74.18 32.9 73.54 33.63 70.09 32.37 69.87 32.56 74.49 34.26 75.37 33.35 71.7 30.87 71.65 31.11"/><polygon points="74.45 28.17 74.4 28.41 76.93 30.21 76.28 30.93 72.84 29.67 72.62 29.87 77.24 31.57 78.11 30.66 74.45 28.17"/><ellipse cx="40.38" cy="27.01" rx="0.44" ry="0.3" transform="translate(-2.9 4.94) rotate(-6.76)"/><ellipse cx="41.49" cy="27.49" rx="0.44" ry="0.3" transform="translate(-2.95 5.08) rotate(-6.76)"/><ellipse cx="42.6" cy="27.96" rx="0.44" ry="0.3" transform="translate(-3 5.21) rotate(-6.76)"/><ellipse cx="44.63" cy="26.21" rx="0.44" ry="0.3" transform="translate(-2.78 5.44) rotate(-6.76)"/><ellipse cx="45.74" cy="26.68" rx="0.44" ry="0.3" transform="translate(-2.82 5.57) rotate(-6.76)"/><ellipse cx="46.85" cy="27.15" rx="0.44" ry="0.3" transform="translate(-2.87 5.71) rotate(-6.76)"/><ellipse cx="48.15" cy="27.8" rx="0.44" ry="0.3" transform="translate(-2.94 5.87) rotate(-6.76)"/><ellipse cx="49.26" cy="28.27" rx="0.44" ry="0.3" transform="translate(-2.99 6) rotate(-6.76)"/><ellipse cx="45.69" cy="28.86" rx="0.44" ry="0.3" transform="translate(-3.08 5.58) rotate(-6.77)"/><ellipse cx="51.19" cy="23.41" rx="0.44" ry="0.3" transform="translate(-2.4 6.19) rotate(-6.76)"/><ellipse cx="53.9" cy="23.92" rx="0.44" ry="0.3" transform="translate(-2.44 6.52) rotate(-6.76)"/><ellipse cx="49.41" cy="22.58" rx="0.44" ry="0.3" transform="translate(-2.32 5.98) rotate(-6.76)"/><ellipse cx="50.15" cy="24.33" rx="0.44" ry="0.3" transform="translate(-2.52 6.08) rotate(-6.76)"/><ellipse cx="54.78" cy="24.33" rx="0.44" ry="0.3" transform="translate(-2.48 6.62) rotate(-6.76)"/><ellipse cx="50.97" cy="27.1" rx="0.44" ry="0.3" transform="translate(-2.84 6.19) rotate(-6.76)"/><ellipse cx="44.65" cy="24.56" rx="0.44" ry="0.3" transform="translate(-2.58 5.43) rotate(-6.77)"/><ellipse cx="45.76" cy="25.04" rx="0.44" ry="0.3" transform="translate(-2.63 5.57) rotate(-6.77)"/><ellipse cx="46.65" cy="24.02" rx="0.44" ry="0.3" transform="translate(-2.51 5.66) rotate(-6.76)"/><path d="M34,44.8a.74.74,0,0,0-.19.55,1.45,1.45,0,0,0,.23.69,2,2,0,0,0,.33.4,1.52,1.52,0,0,0,1.34.47.68.68,0,0,0,.33-.19.64.64,0,0,0,.11-.15,1.38,1.38,0,0,0-.48-1.49C35.13,44.55,34.39,44.42,34,44.8Z"/><polygon points="25.42 34.21 26.11 34.65 24.49 36.7 24.59 36.89 26.97 34 26.04 33.47 22.7 35.95 22.93 36.05 25.42 34.21"/><polygon points="8.76 28.95 7.04 30.23 7.16 30.29 8.44 29.34 8.8 29.56 7.96 30.62 8.01 30.72 9.24 29.23 8.76 28.95"/><path d="M36.72,8.05l.06,1.06a1,1,0,0,0,.48.72,2.37,2.37,0,0,0,1.06.17l-.07-1.39A1.52,1.52,0,0,1,36.72,8.05Z"/><path d="M38.68,8.91,38.73,10a1,1,0,0,0,.48.72,2.37,2.37,0,0,0,1.06.17L40.2,9.47A1.52,1.52,0,0,1,38.68,8.91Z"/><path d="M40.63,9.77l.06,1.06a1,1,0,0,0,.48.72,2.37,2.37,0,0,0,1.06.17l-.07-1.39A1.52,1.52,0,0,1,40.63,9.77Z"/><path d="M44.12,11.19a1.52,1.52,0,0,1-1.53-.56l.06,1.06a1,1,0,0,0,.48.72,2.37,2.37,0,0,0,1.06.17Z"/><path d="M45.09,13.27a2.37,2.37,0,0,0,1.06.17L46.08,12a1.52,1.52,0,0,1-1.53-.56l.06,1.06A1,1,0,0,0,45.09,13.27Z"/><path d="M47,14.13a2.37,2.37,0,0,0,1.06.17L48,12.91a1.52,1.52,0,0,1-1.53-.56l.06,1.06A1,1,0,0,0,47,14.13Z"/><path d="M49,15a2.37,2.37,0,0,0,1.06.17L50,13.77a1.52,1.52,0,0,1-1.53-.56l.06,1.06A1,1,0,0,0,49,15Z"/><path d="M51,15.85A2.37,2.37,0,0,0,52,16L52,14.63a1.52,1.52,0,0,1-1.53-.56l.06,1.06A1,1,0,0,0,51,15.85Z"/><path d="M52.92,16.71a2.37,2.37,0,0,0,1.06.17l-.07-1.39a1.52,1.52,0,0,1-1.53-.56L52.44,16A1,1,0,0,0,52.92,16.71Z"/><path d="M54.88,17.57a2.37,2.37,0,0,0,1.06.17l-.07-1.39a1.52,1.52,0,0,1-1.53-.56l.06,1.06A1,1,0,0,0,54.88,17.57Z"/><path d="M56.84,18.43a2.37,2.37,0,0,0,1.06.17l-.07-1.39a1.52,1.52,0,0,1-1.53-.56l.06,1.06A1,1,0,0,0,56.84,18.43Z"/><path d="M58.8,19.29a2.37,2.37,0,0,0,1.06.17l-.07-1.39a1.52,1.52,0,0,1-1.53-.56l.06,1.06A1,1,0,0,0,58.8,19.29Z"/><path d="M60.76,20.15a2.37,2.37,0,0,0,1.06.17l-.07-1.39a1.52,1.52,0,0,1-1.53-.56l.06,1.06A1,1,0,0,0,60.76,20.15Z"/><path d="M63,21.17a2.37,2.37,0,0,0,1.06.17L64,19.94a1.52,1.52,0,0,1-1.53-.56l.06,1.06A1,1,0,0,0,63,21.17Z"/><path d="M65.32,22a2.37,2.37,0,0,0,1.06.17l-.07-1.39a1.52,1.52,0,0,1-1.53-.56l.06,1.06A1,1,0,0,0,65.32,22Z"/><polygon points="74.34 39.65 80.45 33.44 80.45 31.49 74.34 37.28 74.34 39.65"/><polygon points="74.34 44.27 80.45 38.06 80.45 36.11 74.34 41.9 74.34 44.27"/><polygon points="71.46 48.85 71.46 48.13 71.46 47.54 71.15 47.83 71.17 42.5 64.33 49.53 64.33 54.96 63.89 55.42 63.89 55.97 63.89 56.69 63.89 56.87 71.46 49.07 71.46 48.85"/><polygon points="84.38 23.03 80.72 20.54 80.66 20.78 83.2 22.57 82.55 23.3 79.11 22.04 78.89 22.24 83.51 23.94 84.38 23.03"/><polygon points="87.13 20.33 83.46 17.84 83.41 18.09 85.94 19.88 85.3 20.61 81.86 19.35 81.63 19.54 86.25 21.24 87.13 20.33"/><ellipse cx="46.99" cy="29.5" rx="0.44" ry="0.3" transform="translate(-3.15 5.74) rotate(-6.76)"/><ellipse cx="48.1" cy="29.97" rx="0.44" ry="0.3" transform="translate(-3.2 5.87) rotate(-6.76)"/><ellipse cx="33.63" cy="34.54" rx="0.44" ry="0.3" transform="translate(-3.83 4.2) rotate(-6.76)"/><ellipse cx="34.74" cy="35.01" rx="0.44" ry="0.3" transform="translate(-3.88 4.34) rotate(-6.76)"/><ellipse cx="36.77" cy="33.26" rx="0.44" ry="0.3" transform="translate(-3.66 4.56) rotate(-6.76)"/><ellipse cx="37.88" cy="33.74" rx="0.44" ry="0.3" transform="translate(-3.71 4.7) rotate(-6.76)"/><ellipse cx="38.99" cy="34.21" rx="0.44" ry="0.3" transform="translate(-3.76 4.83) rotate(-6.76)"/><ellipse cx="40.29" cy="34.85" rx="0.44" ry="0.3" transform="translate(-3.82 4.99) rotate(-6.76)"/><ellipse cx="41.4" cy="35.32" rx="0.44" ry="0.3" transform="translate(-3.87 5.12) rotate(-6.76)"/><ellipse cx="37.83" cy="35.91" rx="0.44" ry="0.3" transform="translate(-3.97 4.71) rotate(-6.77)"/><ellipse cx="46.04" cy="30.97" rx="0.44" ry="0.3" transform="translate(-3.33 5.64) rotate(-6.76)"/><ellipse cx="42.29" cy="31.38" rx="0.44" ry="0.3" transform="translate(-3.4 5.2) rotate(-6.76)"/><ellipse cx="46.92" cy="31.38" rx="0.44" ry="0.3" transform="translate(-3.37 5.75) rotate(-6.76)"/><ellipse cx="43.11" cy="34.16" rx="0.44" ry="0.3" transform="translate(-3.72 5.32) rotate(-6.76)"/><ellipse cx="36.79" cy="31.62" rx="0.44" ry="0.3" transform="translate(-3.47 4.55) rotate(-6.77)"/><ellipse cx="37.9" cy="32.09" rx="0.44" ry="0.3" transform="translate(-3.52 4.69) rotate(-6.77)"/><ellipse cx="38.78" cy="31.08" rx="0.44" ry="0.3" transform="translate(-3.39 4.78) rotate(-6.76)"/><polygon points="16.03 22.45 13.47 24.56 16.63 25.9 19.25 23.64 16.03 22.45"/><rect x="22.23" y="23.36" width="2.29" height="1.11" rx="0.5" ry="0.5" transform="translate(-9.94 26.79) rotate(-50.59)"/><rect x="23.71" y="24.01" width="2.29" height="1.11" rx="0.5" ry="0.5" transform="translate(-9.9 28.16) rotate(-50.57)"/><path d="M13.7,25.43V25a.09.09,0,0,0-.18,0v.43l-.41.36a.09.09,0,0,0,.06.16l.06,0,.44-.38A.09.09,0,0,0,13.7,25.43Z"/><path d="M14,25.56v-.47a.09.09,0,0,0-.18,0v.43l-.41.36a.09.09,0,0,0,.06.16l.06,0,.44-.39A.09.09,0,0,0,14,25.56Z"/><path d="M14.21,25.68v-.47a.09.09,0,0,0-.18,0v.43l-.41.36a.09.09,0,0,0,.06.16l.06,0,.44-.38A.09.09,0,0,0,14.21,25.68Z"/><path d="M14.47,25.81v-.47a.09.09,0,1,0-.18,0v.43l-.41.36a.09.09,0,0,0,.06.16l.06,0,.44-.38A.09.09,0,0,0,14.47,25.81Z"/><path d="M14.73,25.94v-.47a.09.09,0,1,0-.18,0v.43l-.41.36a.09.09,0,0,0,.06.16l.06,0L14.7,26A.09.09,0,0,0,14.73,25.94Z"/><path d="M15,26.06v-.47a.09.09,0,0,0-.18,0V26l-.41.36a.09.09,0,0,0,.06.16l.06,0,.44-.38A.09.09,0,0,0,15,26.06Z"/><path d="M15.25,26.19v-.47a.09.09,0,1,0-.18,0v.43l-.41.36a.09.09,0,0,0,.06.16l.06,0,.44-.38A.09.09,0,0,0,15.25,26.19Z"/><path d="M15.51,26.31v-.47a.09.09,0,0,0-.18,0v.43l-.41.36a.09.09,0,0,0,.06.16l.06,0,.44-.39A.09.09,0,0,0,15.51,26.31Z"/><path d="M15.77,26.44V26a.09.09,0,1,0-.18,0v.43l-.41.36a.09.09,0,0,0,.06.16l.06,0,.44-.38A.09.09,0,0,0,15.77,26.44Z"/><path d="M16,26.56v-.47a.09.09,0,1,0-.18,0v.43l-.41.36a.09.09,0,0,0,.06.16l.06,0,.44-.38A.09.09,0,0,0,16,26.56Z"/><path d="M16.2,26.13a.09.09,0,0,0-.09.09v.43L15.7,27a.09.09,0,0,0,.06.16l.06,0,.44-.39a.09.09,0,0,0,0-.07v-.47A.09.09,0,0,0,16.2,26.13Z"/><path d="M19.75,24.87l-.49-.23-.12-.42a.09.09,0,0,0-.17.05l.13.45a.09.09,0,0,0,0,.06l.53.24h0a.09.09,0,0,0,0-.17Z"/><path d="M19.53,25.06,19,24.83l-.12-.42a.09.09,0,0,0-.17.05l.13.45a.09.09,0,0,0,0,.06l.53.24h0a.09.09,0,0,0,0-.17Z"/><path d="M19.32,25.26,18.83,25l-.12-.42a.09.09,0,0,0-.17.05l.13.45a.09.09,0,0,0,0,.06l.53.24h0a.09.09,0,0,0,0-.17Z"/><path d="M19.11,25.45l-.49-.23-.12-.42a.09.09,0,1,0-.17.05l.13.45a.09.09,0,0,0,0,.06l.53.24h0a.09.09,0,0,0,0-.17Z"/><path d="M18.9,25.65l-.49-.23L18.28,25a.09.09,0,0,0-.17.05l.13.45a.09.09,0,0,0,0,.06l.53.24h0a.09.09,0,0,0,0-.17Z"/><path d="M18.68,25.84l-.49-.23-.12-.42a.09.09,0,1,0-.17.05l.13.45a.09.09,0,0,0,0,.06l.53.24h0a.09.09,0,0,0,0-.17Z"/><path d="M18.47,26,18,25.81l-.12-.42a.09.09,0,1,0-.17.05l.13.45a.09.09,0,0,0,0,.06l.53.24h0a.09.09,0,0,0,0-.17Z"/><path d="M18.26,26.23,17.77,26l-.12-.42a.09.09,0,0,0-.17.05l.13.45a.09.09,0,0,0,0,.06l.53.24h0a.09.09,0,0,0,0-.17Z"/><path d="M18,26.42l-.49-.23-.12-.42a.09.09,0,0,0-.17.05l.13.45a.09.09,0,0,0,0,.06l.53.24h0a.09.09,0,0,0,0-.17Z"/><path d="M17.83,26.62l-.49-.23L17.22,26A.09.09,0,0,0,17,26l.13.45a.09.09,0,0,0,0,.06l.53.24h0a.09.09,0,0,0,0-.17Z"/><path d="M17.62,26.81l-.49-.23L17,26.17a.09.09,0,0,0-.17.05l.13.45a.09.09,0,0,0,0,.06l.53.24h0a.09.09,0,0,0,0-.17Z"/><polygon points="10.69 23.11 9.53 24.07 10.97 24.68 12.16 23.66 10.69 23.11"/><path d="M9.63,24.47v-.22a0,0,0,1,0-.08,0v.2l-.18.16a0,0,0,0,0,0,.06h.06l.2-.17A0,0,0,0,0,9.63,24.47Z"/><path d="M9.75,24.53v-.22a0,0,0,1,0-.08,0v.2l-.18.16a0,0,0,0,0,0,.06h.06l.2-.18A0,0,0,0,0,9.75,24.53Z"/><path d="M9.87,24.58v-.22a0,0,0,1,0-.08,0v.2l-.18.16a0,0,0,0,0,0,.06h.06l.2-.17A0,0,0,0,0,9.87,24.58Z"/><path d="M10,24.64v-.22a0,0,0,1,0-.08,0v.2l-.18.16a0,0,0,0,0,0,.06h.06l.2-.18A0,0,0,0,0,10,24.64Z"/><path d="M10.11,24.7v-.22a0,0,0,0,0-.08,0v.2l-.18.16a0,0,0,0,0,0,.06h.06l.2-.18A0,0,0,0,0,10.11,24.7Z"/><path d="M10.22,24.76v-.22a0,0,0,0,0-.08,0v.2L10,24.9A0,0,0,0,0,10,25H10l.2-.18A0,0,0,0,0,10.22,24.76Z"/><path d="M10.34,24.81V24.6a0,0,0,0,0-.08,0v.2l-.18.16a0,0,0,0,0,0,.06h.06l.2-.17A0,0,0,0,0,10.34,24.81Z"/><path d="M10.46,24.87v-.22a0,0,0,0,0-.08,0v.2l-.18.16a0,0,0,0,0,0,.06h.06l.2-.18A0,0,0,0,0,10.46,24.87Z"/><path d="M10.58,24.93v-.22a0,0,0,1,0-.08,0v.2l-.18.16a0,0,0,0,0,0,.06h.06l.2-.17A0,0,0,0,0,10.58,24.93Z"/><path d="M10.69,25v-.22a0,0,0,1,0-.08,0V25l-.18.16a0,0,0,0,0,0,.06h.06l.2-.17A0,0,0,0,0,10.69,25Z"/><path d="M10.77,24.79a0,0,0,0,0,0,0V25l-.18.16a0,0,0,0,0,0,.06h.06l.2-.18a0,0,0,0,0,0,0v-.22A0,0,0,0,0,10.77,24.79Z"/><path d="M12.16,24.11l-.06-.19a0,0,0,1,0-.08,0l.06.21,0,0,.24.11h0a0,0,0,0,0,0-.08Z"/><path d="M12.06,24.2,12,24a0,0,0,0,0-.08,0l.06.21,0,0,.24.11h0a0,0,0,0,0,0-.08Z"/><path d="M12,24.29l-.06-.19a0,0,0,0,0-.08,0l.06.21,0,0,.24.11h0a0,0,0,0,0,0-.08Z"/><path d="M11.87,24.37l-.06-.19a0,0,0,1,0-.08,0l.06.21,0,0,.24.11h0a0,0,0,0,0,0-.08Z"/><path d="M11.77,24.46l-.06-.19a0,0,0,1,0-.08,0l.06.21,0,0,.24.11h0a0,0,0,0,0,0-.08Z"/><path d="M11.68,24.55l-.06-.19a0,0,0,0,0-.08,0l.06.21,0,0,.24.11h0a0,0,0,0,0,0-.08Z"/><path d="M11.58,24.64l-.06-.19a0,0,0,1,0-.08,0l.06.21,0,0,.24.11h0a0,0,0,0,0,0-.08Z"/><path d="M11.48,24.73l-.06-.19a0,0,0,0,0-.08,0l.06.21,0,0,.24.11h0a0,0,0,0,0,0-.08Z"/><path d="M11.39,24.82l-.06-.19a0,0,0,1,0-.08,0l.06.21,0,0,.24.11h0a0,0,0,0,0,0-.08Z"/><path d="M11.29,24.9l-.06-.19a0,0,0,1,0-.08,0l.06.21,0,0,.24.11h0a0,0,0,0,0,0-.08Z"/><path d="M11.19,25l-.06-.19a0,0,0,0,0-.08,0l.06.21,0,0,.24.11h0a0,0,0,0,0,0-.08Z"/><polygon points="24.41 14.34 23.25 15.3 24.69 15.91 25.88 14.88 24.41 14.34"/><path d="M23.11,15.92h0l.2-.18a0,0,0,0,0,0,0v-.22a0,0,0,1,0-.08,0v.2l-.18.16a0,0,0,0,0,0,.06Z"/><path d="M23.47,15.76v-.22a0,0,0,0,0-.08,0v.2l-.18.16a0,0,0,0,0,0,.06h.06l.2-.18A0,0,0,0,0,23.47,15.76Z"/><path d="M23.35,16h0l.2-.18a0,0,0,0,0,0,0V15.6a0,0,0,0,0-.08,0v.2l-.18.16a0,0,0,0,0,0,.06Z"/><path d="M23.47,16.09h0l.2-.17a0,0,0,0,0,0,0v-.22a0,0,0,0,0-.08,0v.2l-.18.16a0,0,0,0,0,0,.06Z"/><path d="M23.59,16.14h0l.2-.18a0,0,0,0,0,0,0v-.22a0,0,0,0,0-.08,0v.2l-.18.16a0,0,0,0,0,0,.06Z"/><path d="M23.7,16.2h0l.2-.17a0,0,0,0,0,0,0v-.22a0,0,0,1,0-.08,0V16l-.18.16a0,0,0,0,0,0,.06Z"/><path d="M23.82,16.26h0l.2-.18a0,0,0,0,0,0,0v-.22a0,0,0,0,0-.08,0V16l-.18.16a0,0,0,0,0,0,.06Z"/><path d="M23.94,16.32h0l.2-.18a0,0,0,0,0,0,0v-.22a0,0,0,1,0-.08,0v.2l-.18.16a0,0,0,0,0,0,.06Z"/><path d="M24.06,16.37h0l.2-.18a0,0,0,0,0,0,0v-.22a0,0,0,0,0-.08,0v.2L24,16.3a0,0,0,0,0,0,.06Z"/><path d="M24.18,16.43h0l.2-.18a0,0,0,0,0,0,0V16a0,0,0,1,0-.08,0v.2l-.18.16a0,0,0,0,0,0,.06Z"/><path d="M24.29,16.49h0l.2-.18a0,0,0,0,0,0,0v-.22a0,0,0,0,0-.08,0v.2l-.18.16a0,0,0,0,0,0,.06Z"/><path d="M25.88,15.34l-.06-.19a0,0,0,1,0-.08,0l.06.21,0,0,.24.11h0a0,0,0,0,0,0-.08Z"/><path d="M25.78,15.43l-.06-.19a0,0,0,1,0-.08,0l.06.21,0,0,.24.11h0a0,0,0,0,0,0-.08Z"/><path d="M25.69,15.52l-.06-.19a0,0,0,1,0-.08,0l.06.21,0,0,.24.11h0a0,0,0,0,0,0-.08Z"/><path d="M25.59,15.6l-.06-.19a0,0,0,0,0-.08,0l.06.21,0,0,.24.11h0a0,0,0,0,0,0-.08Z"/><path d="M25.7,15.87a0,0,0,0,0,0-.08l-.22-.1-.06-.19a0,0,0,0,0-.08,0l.06.21,0,0,.24.11Z"/><path d="M25.6,16a0,0,0,0,0,0-.08l-.22-.1-.06-.19a0,0,0,1,0-.08,0l.06.21,0,0,.24.11Z"/><path d="M25.51,16.05a0,0,0,0,0,0-.08l-.22-.1-.06-.19a0,0,0,0,0-.08,0l.06.21,0,0,.24.11Z"/><path d="M25.41,16.14a0,0,0,0,0,0-.08L25.2,16l-.06-.19a0,0,0,1,0-.08,0l.06.21,0,0,.24.11Z"/><path d="M25.31,16.23a0,0,0,0,0,0-.08l-.22-.1-.06-.19a0,0,0,1,0-.08,0l.06.21,0,0,.24.11Z"/><path d="M25.22,16.32a0,0,0,0,0,0-.08l-.22-.1L25,15.95a0,0,0,1,0-.08,0l.06.21,0,0,.24.11Z"/><path d="M24.86,16a0,0,0,0,0-.08,0l.06.21,0,0,.24.11h0a0,0,0,0,0,0-.08l-.22-.1Z"/><polygon points="20.77 21.02 18.93 20.34 17.47 21.55 19.27 22.32 20.77 21.02"/><path d="M17.29,22.32h0l.25-.22a.05.05,0,0,0,0,0v-.27a.05.05,0,1,0-.1,0V22l-.23.21a.05.05,0,0,0,0,.07Z"/><path d="M17.74,22.12v-.27a.05.05,0,0,0-.1,0v.25l-.23.21a.05.05,0,0,0,0,.07l0,0h0l.25-.22A.05.05,0,0,0,17.74,22.12Z"/><path d="M17.59,22.46h0l.25-.22a.05.05,0,0,0,0,0v-.27a.05.05,0,1,0-.1,0v.25l-.23.21a.05.05,0,0,0,0,.07Z"/><path d="M17.74,22.54h0L18,22.3a.05.05,0,0,0,0,0V22a.05.05,0,1,0-.1,0v.25l-.23.21a.05.05,0,0,0,0,.07Z"/><path d="M17.89,22.61h0l.25-.22a.05.05,0,0,0,0,0v-.27a.05.05,0,0,0-.1,0v.25l-.23.21a.05.05,0,0,0,0,.07Z"/><path d="M18,22.68h0l.25-.22a.05.05,0,0,0,0,0v-.27a.05.05,0,1,0-.1,0v.25l-.23.21a.05.05,0,0,0,0,.07Z"/><path d="M18.18,22.75h0l.25-.22a.05.05,0,0,0,0,0v-.27a.05.05,0,1,0-.1,0v.25l-.23.21a.05.05,0,0,0,0,.07Z"/><path d="M18.33,22.83h0l.25-.22a.05.05,0,0,0,0,0v-.27a.05.05,0,0,0-.1,0v.25l-.23.21a.05.05,0,0,0,0,.07Z"/><path d="M18.48,22.9h0l.25-.22a.05.05,0,0,0,0,0v-.27a.05.05,0,0,0-.1,0v.25l-.23.21a.05.05,0,0,0,0,.07Z"/><path d="M18.63,23h0l.25-.22a.05.05,0,0,0,0,0v-.27a.05.05,0,0,0-.1,0v.25l-.23.21a.05.05,0,0,0,0,.07Z"/><path d="M18.78,23h0l.25-.22a.05.05,0,0,0,0,0V22.5a.05.05,0,1,0-.1,0v.25l-.23.21a.05.05,0,0,0,0,.07Z"/><path d="M20.78,21.6l-.07-.24a.05.05,0,0,0-.1,0l.08.26,0,0,.3.14h0a.05.05,0,0,0,0-.1Z"/><path d="M20.66,21.71l-.07-.24a.05.05,0,0,0-.1,0l.08.26,0,0,.3.14h0a.05.05,0,0,0,0-.1Z"/><path d="M20.53,21.82l-.07-.24a.05.05,0,1,0-.1,0l.08.26,0,0,.3.14h0a.05.05,0,0,0,0-.1Z"/><path d="M20.41,21.93l-.07-.24a.05.05,0,0,0-.1,0l.08.26,0,0,.3.14h0a.05.05,0,0,0,0-.1Z"/><path d="M20.29,22l-.07-.24a.05.05,0,0,0-.1,0l.08.26,0,0,.3.14h0a.05.05,0,0,0,0-.1Z"/><path d="M20.17,22.15l-.07-.24a.05.05,0,1,0-.1,0l.08.26,0,0,.3.14h0a.05.05,0,0,0,0-.1Z"/><path d="M20,22.26,20,22a.05.05,0,1,0-.1,0l.08.26,0,0,.3.14h0a.05.05,0,0,0,0-.1Z"/><path d="M19.92,22.37l-.07-.24a.05.05,0,1,0-.1,0l.08.26,0,0,.3.14h0a.05.05,0,0,0,0-.1Z"/><path d="M19.8,22.49l-.07-.24a.05.05,0,0,0-.1,0l.08.26,0,0,.3.14h0a.05.05,0,0,0,0-.1Z"/><path d="M19.68,22.6l-.07-.24a.05.05,0,1,0-.1,0l.08.26,0,0,.3.14h0a.05.05,0,0,0,0-.1Z"/><path d="M19.56,22.71l-.07-.24a.05.05,0,1,0-.1,0l.08.26,0,0,.3.14h0a.05.05,0,0,0,0-.1Z"/><polygon points="83.35 26.95 83.35 27.14 83.35 29.32 84.83 27.82 85.2 27.44 89.47 23.11 89.47 21.16 83.61 26.71 83.35 26.95"/><polygon points="86.49 28.6 83.35 31.57 83.35 33.94 87.95 29.27 88.33 28.89 89.47 27.73 89.47 25.78 86.89 28.22 86.49 28.6"/><path d="M36.65,8.43h0l0,0h0l-.3-.13,0-.51a1.52,1.52,0,0,1-1.53-.56l0,.38-.43-.19,0-.5a1.52,1.52,0,0,1-1.53-.56l0,.37-.43-.19,0-.48a1.52,1.52,0,0,1-1.53-.56l0,.35-.94-.42a.09.09,0,0,0-.09,0l-6.69,5.49h0l0,0h0v0h0v1.73a.09.09,0,0,0,.05.08l6.91,3.29h.1l6.46-5.91a.09.09,0,0,0,0-.07V8.47h0A.09.09,0,0,0,36.65,8.43ZM30,15.86l-6.73-3.2V11.12L30,14.35Zm.07-1.68L23.37,11,29.9,5.59l1,.43,1.53.68.43.19,1.53.68.43.19,1.53.68.09,0Zm6.39-4.13L30.2,15.8V14.33l6.29-5.66Z"/><path d="M90,27.87l-.07-8.63h0a.09.09,0,0,0,0,0h0l0,0h0L76.72,13.32a.09.09,0,0,0-.1,0l-6.56,6.4h0v0h0v.63l-1-.46v0a.21.21,0,0,0-.21-.22.21.21,0,0,0-.16.08l-1.11-.51a.78.78,0,0,0,0-.79.67.67,0,0,0-.51-.23L66.85,15a.21.21,0,0,0-.42,0l.18,3.32a2.06,2.06,0,0,0-.56.26l-.28-.13-.12-2.32a.21.21,0,1,0-.42,0l.09,1.71a.57.57,0,0,0-.11-.23.67.67,0,0,0-.51-.23l-.17-3.29a.21.21,0,0,0-.42,0l.18,3.32a2,2,0,0,0-.35.14l-.5-.23-.11-2.1a.21.21,0,0,0-.42,0L63,16.61a.67.67,0,0,0-.5-.22l-.17-3.29a.21.21,0,1,0-.42,0L62,16.44a1.94,1.94,0,0,0-.33.13l-.52-.24-.11-2.08a.21.21,0,1,0-.42,0l.07,1.3a.85.85,0,0,0-.22,0l-.17-3.29a.21.21,0,0,0-.42,0l.18,3.32-.28.11-.57-.26-.11-2a.21.21,0,1,0-.42,0l.07,1.3a.85.85,0,0,0-.22,0l-.17-3.29a.21.21,0,1,0-.42,0l.18,3.32-.23.08-.62-.29-.11-2a.21.21,0,1,0-.42,0l.07,1.3a.85.85,0,0,0-.22,0l-.17-3.29a.21.21,0,0,0-.42,0l.18,3.32-.18.06a2.23,2.23,0,0,0-.53.31l0,0-.06.05v-.14l0-.57-.1-1.94a.21.21,0,1,0-.42,0l.07,1.3a.85.85,0,0,0-.22,0l-.17-3.29a.21.21,0,1,0-.42,0L54.2,13l-.12,0-.74-.34-.1-1.89a.21.21,0,0,0-.42,0l.07,1.3a.85.85,0,0,0-.22,0L52.49,8.8a.21.21,0,0,0-.42,0l.18,3.32-.07,0-.8-.37L51.28,10a.21.21,0,0,0-.42,0l.07,1.3a.85.85,0,0,0-.22,0l-.17-3.29a.21.21,0,0,0-.42,0l.18,3.32h0l-.86-.4-.1-1.8a.21.21,0,0,0-.42,0l.07,1.3a.85.85,0,0,0-.22,0l-.17-3.29a.21.21,0,0,0-.42,0l.17,3.28-.87-.4-.09-1.75a.21.21,0,1,0-.42,0L47,9.55a.85.85,0,0,0-.22,0l-.17-3.29a.21.21,0,0,0-.42,0l.17,3.24-.87-.4-.09-1.71a.21.21,0,1,0-.42,0l.07,1.3a.85.85,0,0,0-.22,0l-.17-3.29a.21.21,0,1,0-.42,0l.17,3.19-.87-.4-.09-1.66a.21.21,0,0,0-.42,0l.07,1.3a.85.85,0,0,0-.22,0L42.7,4.5a.21.21,0,1,0-.42,0l.17,3.15-.87-.4-.09-1.61a.21.21,0,1,0-.42,0L41.14,7a.85.85,0,0,0-.22,0l-.17-3.29a.21.21,0,1,0-.42,0l.16,3.1-.87-.4-.08-1.57a.21.21,0,0,0-.42,0l.07,1.3-.18,0,0,0-.17-3.28a.21.21,0,0,0-.42,0l.16,3.05-.87-.4-.08-1.52a.21.21,0,0,0-.42,0l.07,1.3h0L37,5.15l-.17-3.23a.21.21,0,1,0-.42,0l.16,3-.87-.4-.08-1.48a.21.21,0,0,0-.42,0l.07,1.26L35,4.25l-.17-3.19a.21.21,0,0,0-.42,0l.16,3-.87-.4-.08-1.43a.21.21,0,1,0-.42,0l.06,1.21-.23-.1L32.91.2a.21.21,0,0,0-.42,0l.15,2.92-.87-.4L31.7,1.35a.21.21,0,1,0-.42,0l.06,1.17-.62-.28a2.45,2.45,0,0,0-2.78.27L21.19,8.31l-.95-.26-9.55,7.74,0,1.46L.63,25.92a2,2,0,0,0-.44,2.34.25.25,0,0,0,.11.12l2,1,.63.33a.09.09,0,0,0,0,0l.73.94,0,0L7.21,32.6h0l.9-.06h.06l0,0,7.83,4.1.16.21,0,0,6.83,3.63h0l.29,0,9.71,5.08A3,3,0,0,0,34,46.89a2.8,2.8,0,0,0,1.84.83,1.3,1.3,0,0,0,.88-.31C47.6,53.13,57.11,58.11,58,58.62a4.39,4.39,0,0,0,2.11.59,3,3,0,0,0,1.91-.62l0,0,.66-.69.6.32h.08l0,0h0L72,49.35a.09.09,0,0,0,0-.06v-1L88.87,30.85a1.12,1.12,0,0,0,.39-1,1.15,1.15,0,0,0-.42-.65L90,27.93A.09.09,0,0,0,90,27.87ZM76.71,13.51l13,5.75-6.83,6.35L70.29,19.77Zm-6.49,7.56V19.94l12.55,5.84v9.78L81,34.61l0-5h0a.09.09,0,0,0,0,0h0l0,0h0L70.22,24.76ZM69,20.52,70,21v3.7l-.65-.29a.84.84,0,0,0,.07-.89.67.67,0,0,0-.49-.27Zm-11.67-5.4h0l-.06.05v-.09Zm-3.84-1.78-.08.06-.06.05v-.18Zm-1.92-.89-.12.09-.06.05v-.23Zm-1.92-.89-.16.12-.06.05v-.28Zm-1.92-.89-.2.14-.06.05,0-.32ZM45.85,9.8l-.24.17-.06.05,0-.37Zm-1.92-.89a2.33,2.33,0,0,0-.29.19l-.06.05,0-.42ZM42,8a2.33,2.33,0,0,0-.33.22l-.06.05,0-.46ZM40.1,7.14a2.33,2.33,0,0,0-.37.24l-.06.05,0-.51Zm-1.91-.88a2.3,2.3,0,0,0-.42.27l-.06.05,0-.55Zm-1.91-.88a2.27,2.27,0,0,0-.47.29l-.06.05,0-.6ZM34.37,4.5a2.26,2.26,0,0,0-.51.31l-.06.05,0-.64Zm-1.91-.88a2.25,2.25,0,0,0-.56.33L31.84,4l0-.69ZM8.07,31.85v.53H8l-.72,0L3.79,30.58l4.28.67Zm.07-.77-5-2.43L6,26.09l4.92,2.21Zm15,9.21-6.79-3.61,8.43,1.18v2.32l-.7,0Zm6.45-8.66,1-1-.25-4.11,1.31-1.36h0l.21.1-1.33,1.38.25,4.11-1,1Zm-.38-.17,1-1L30,26.32,31.3,25h0l.21.1-1.33,1.38.25,4.11-1,1Zm0-7.46-1.31,1.36.25,4.11-1.05,1.05-.21-.09L28,29.36l-.25-4.11L29,23.9Zm-.88,5.54-.25-4.11,1.3-1.35.21.1-1.32,1.36.25,4.11-1,1-.21-.09Zm.38.18-.25-4.11,1.31-1.35.21.1-1.32,1.37.25,4.11-1,1-.21-.09Zm.38.18-.25-4.11,1.31-1.35.21.1L29,25.9,29.3,30l-1,1-.21-.09Zm.38.18L29.23,26l1.31-1.36.59.27-1.33,1.37.25,4.11-1,1-.6-.27ZM26,22.32a1.73,1.73,0,0,1,.66-1.67s4.43-4,5.53-5a1.82,1.82,0,0,1,2.15-.4c.07,0,7.23,3.35,8,3.8a1,1,0,0,1,.56,1.09l-7.34,6.58Zm2.84,1.5-1.31,1.36.25,4.11-1.06,1.06-.21-.09,1.07-1.07-.25-4.11,1.3-1.34Zm.52,7.91h0l.06,0,.31.14h0a.09.09,0,0,0,.06,0h0l.56.25L24.85,37.7,15,32.92l5.65-5.09Zm7.46,15.18a1,1,0,0,1-.2.32l-.1.09a1.14,1.14,0,0,1-.71.22,2.63,2.63,0,0,1-1.72-.78,3,3,0,0,1-.75-1.11,1.89,1.89,0,0,1-.12-.63,1.07,1.07,0,0,1,.27-.77,1.09,1.09,0,0,1,.82-.31,2.63,2.63,0,0,1,1.72.78A2.21,2.21,0,0,1,36.82,46.91Zm-.67-2.32a2.8,2.8,0,0,0-1.84-.83l-.29,0,1.51-1.13a2,2,0,0,1,2,.84,2.59,2.59,0,0,1,.6,2.24L37,46.82A2.5,2.5,0,0,0,36.15,44.59Zm2.92-1v4.1l-1.78-.85,1-1,0,0h0a2.53,2.53,0,0,0-.61-2.43,2.21,2.21,0,0,0-2.22-.9l0,0-1,.72V41.39Zm-4.6-2.34L39,37.37l4.79,1.92-4.64,4.12Zm27.25,17a3.05,3.05,0,0,1-3.44,0c-.93-.5-10.36-5.45-21.21-11.14l.08-.08,2,.94h0a.09.09,0,0,0,.06,0L44,43A.09.09,0,0,0,44,43v-3.7h0a.09.09,0,0,0,0,0h0l0,0h0l-5-2a.09.09,0,0,0-.09,0l-4.67,4h0a.09.09,0,0,0,0,.05h0v2.13h0l-.82.7,0,0h0a1.22,1.22,0,0,0-.32.8l-8.67-4.54.5,0h.06L30.59,35a.09.09,0,0,0,0-.06V32.16h0v0h0l0,0h0L30,31.81l1-1-.25-4.11,1.31-1.36h0l3.52,1.62,7.47-6.69v0a1.22,1.22,0,0,0-.63-1.31c-.78-.46-7.72-3.67-8-3.81a2,2,0,0,0-2.36.43c-1.1,1.05-5.48,5-5.51,5a1.91,1.91,0,0,0-.72,1.88v0l2.62,1.21L27.15,25l.25,4.11-1.06,1.07-5.63-2.53a.09.09,0,0,0-.1,0l-5.79,5.21h0v0h0v0h0v2a.09.09,0,0,0,0,.05l.51.66-6.7-3.51,2.52-2.38a.09.09,0,0,0,0-.06V28.28h0v0h0l0,0h0L6,25.91a.09.09,0,0,0-.1,0l-3,2.69h0v0h0v0h0v.48l-.4-.21h0L.61,28A1.51,1.51,0,0,1,1,26.29l9.79-8.39.06,2.2,1.21.67,1-.59L12.92,19l9.19-7.34v.76l.2-.12V8.61l-.53-.14,6.5-5.56,0,0a2,2,0,0,1,2.23-.17l.85.39.07,1.33a1,1,0,0,0-.12,1.1c.31.38,1.06.28,1.69-.23a2.31,2.31,0,0,0,.37-.38l0,.36a1,1,0,0,0-.12,1.1c.31.38,1.06.28,1.69-.23a2.31,2.31,0,0,0,.37-.38l0,.36a1,1,0,0,0-.12,1.1c.31.38,1.06.28,1.69-.23a2.31,2.31,0,0,0,.37-.38l0,.36a1,1,0,0,0-.12,1.1c.31.38,1.06.28,1.69-.23a2.31,2.31,0,0,0,.37-.38l0,.36A1,1,0,0,0,39.15,9c.31.38,1.06.28,1.69-.23a2.31,2.31,0,0,0,.37-.38l0,.36a1,1,0,0,0-.12,1.1c.31.38,1.06.28,1.69-.23a2.31,2.31,0,0,0,.37-.38l0,.36a1,1,0,0,0-.12,1.1c.31.38,1.06.28,1.69-.23a2.31,2.31,0,0,0,.37-.38l0,.36a1,1,0,0,0-.12,1.1c.31.38,1.06.28,1.69-.23a2.31,2.31,0,0,0,.37-.38l0,.36a1,1,0,0,0-.12,1.1c.31.38,1.06.28,1.69-.23a2.31,2.31,0,0,0,.37-.38l0,.36a1,1,0,0,0-.12,1.1c.31.38,1.06.28,1.69-.23a2.31,2.31,0,0,0,.37-.38L51,13a1,1,0,0,0-.12,1.1c.31.38,1.06.28,1.69-.23a2.31,2.31,0,0,0,.37-.38l0,.36a1,1,0,0,0-.12,1.1c.31.38,1.06.28,1.69-.23a2.31,2.31,0,0,0,.37-.38l0,.36a1,1,0,0,0-.12,1.1c.31.38,1.06.28,1.69-.23a2.31,2.31,0,0,0,.37-.38l0,.36a1,1,0,0,0-.12,1.1c.31.38,1.06.28,1.69-.23a2.31,2.31,0,0,0,.37-.38l0,.36a1,1,0,0,0-.12,1.1c.31.38,1.06.28,1.69-.23A2.31,2.31,0,0,0,60.8,17l0,.36a1,1,0,0,0-.12,1.1c.31.38,1.06.28,1.69-.23a2.2,2.2,0,0,0,.49-.55l.15.07,0,.62a1,1,0,0,0-.12,1.1c.31.38,1.06.28,1.69-.23a2.22,2.22,0,0,0,.48-.54l.26.12,0,.4a1,1,0,0,0-.12,1.1c.31.38,1.06.28,1.69-.23a2.31,2.31,0,0,0,.37-.37l1.31.61-.07,2.93a2.15,2.15,0,0,0-.79.34l-.06,0L67.76,21a.21.21,0,1,0-.42,0l-.07,3-6.21,6.06h0v0h0v2.61l-4.71-2.3a.09.09,0,0,0-.1,0L51,35.53a.09.09,0,0,0,0,.15l.63.26-4.79,4.7h0a.09.09,0,0,0,0,0h0v8.6a.09.09,0,0,0,0,.08l15.35,8.27ZM49.1,43.92,49,50.27l-1.92-1V41Zm-1.86-3,9.35,4.62-2.2.87-5.14-2.59ZM63.29,56.58V58l-.43-.23-.46-.25L49.15,50.37,49.27,44l5.07,2.56h.07l2.38-.94,6.51,3.22Zm.09-7.87-16.27-8,8.31-8.15,5.66,2.67h0l10.65,5Zm8.41-.94v1.47l-8.33,8.65V56.4l0-7.54L71.8,40.4ZM72,47.6V45.15l1.57.82Zm1.78-1.85-.08.09L72,45V40.19h0a.09.09,0,0,0,0,0h0L61.21,35.05V30.26L73.76,36.1ZM61.27,30.1,67,24.49l.67-.65,1.6.71,11.37,5-6.83,6.35ZM73.94,45.8V36.09l6.8-6.32.07,8.4-3.89,4.32Zm14.57-15.3-8.11,8.39.57-.63a.09.09,0,0,0,0-.06l0-3.39,1.87,1h.08l0,0h0l5.57-6.19a.69.69,0,0,1,.26.37A.66.66,0,0,1,88.51,30.49Zm.19-1.41-.34.38-5.4,6V25.76l6.8-6.32.07,8.4Z"/><polygon points="16.42 32.68 16.64 32.79 19.14 30.94 19.83 31.38 18.21 33.44 18.31 33.62 20.69 30.73 19.76 30.2 16.42 32.68"/><polygon points="3.8 28.54 3.91 28.6 5.2 27.65 5.56 27.87 4.72 28.93 4.77 29.03 6 27.54 5.52 27.26 3.8 28.54"/></g></g><text x="0" y="72.21000000000001" fill="ghostwhite" font-size="2px" font-weight="light" font-family="'Helvetica Neue', Helvetica, Arial-Unicode, Arial, Sans-serif">Created by Batibull</text><text x="0" y="79.21000000000001" fill="ghostwhite" font-size="1px" font-weight="light" font-family="'Helvetica Neue', Helvetica, Arial-Unicode, Arial, Sans-serif">from the Noun Project</text></svg>
