<svg xmlns="http://www.w3.org/2000/svg" xmlns:xlink="http://www.w3.org/1999/xlink" version="1.1" x="0px" y="0px" viewBox="0 0 558.066 461.38874999999996" style="enable-background:new 0 0 558.066 369.111;" xml:space="preserve" fill="ghostwhite"><g><g><g><g><path d="M553.803,228.447c2.598,2.67,4.264,6.264,4.264,10.268c0,4.068-1.731,7.799-4.329,10.469l-0.202,0.13      c-2.669,2.598-6.334,4.199-10.267,4.199c-4.134,0-7.8-1.667-10.469-4.329l-0.13-0.137c-2.604-2.67-4.199-6.335-4.199-10.332      c0-4.069,1.666-7.734,4.329-10.404l0.137-0.13c2.663-2.669,6.263-4.265,10.332-4.265s7.734,1.667,10.397,4.33L553.803,228.447z       M549.401,238.715c0-1.667-0.735-3.203-1.797-4.336c-1.133-1.133-2.669-1.797-4.336-1.797c-1.731,0-3.269,0.664-4.401,1.797      c-1.067,1.133-1.797,2.669-1.797,4.336c0,1.731,0.729,3.268,1.797,4.329c1.133,1.14,2.67,1.868,4.401,1.868      c1.667,0,3.203-0.729,4.336-1.797C548.666,241.982,549.401,240.446,549.401,238.715z"/><path d="M492.201,9.646c2.135,1.204,2.799,3.867,1.602,5.938c-0.404,0.664-0.932,1.198-1.602,1.595l-15.729,9.069      c-2.07,1.198-4.668,0.469-5.872-1.602c-1.198-2.064-0.463-4.668,1.536-5.866l9.336-5.397l-9.336-5.338      c-1.999-1.198-2.734-3.861-1.536-5.931c1.204-1.999,3.802-2.734,5.872-1.53L492.201,9.646z"/><path d="M488.601,199.111c1.003,2.604,1.536,5.339,1.536,8.139c0,5.729-2.135,11.529-6.399,15.865      c-12.2,12.533-44.004,39.467-76.868,61.335c-22.402,14.929-45.469,27.663-63.471,31.999c-2.799,0.664-5.931,1.133-9.264,1.465      c-3.398,0.332-6.934,0.469-10.469,0.469c-30.996,0-75.996-10.404-111.797-18.737c-23.203-5.397-42.468-9.863-50.866-9.863      c-5.065,0-11.999,1.263-19.733,3.262c-8.737,2.2-18.398,5.403-27.532,8.672v17.93c0,2.402-1.934,4.336-4.336,4.336H53.535      c-2.402,0-4.336-1.934-4.336-4.336V161.449c0-2.402,1.934-4.336,4.336-4.336h55.866c2.402,0,4.336,1.934,4.336,4.336v14.596      c5.866-1.731,14.596-4.264,25.729-7.396c13.932-3.938,32.337-9.069,54.199-15l0.403-0.137c5-1.335,10.13-2.331,15.397-3.001      c5.533-0.664,11.133-0.996,16.803-0.996c12.331,0,25.065,1.529,37.396,4.134c13.736,2.864,26.934,7.063,38.802,11.862      c4.87,1.934,9.199,3.6,13.398,5.201c26.738,10.137,48.269,18.334,40.534,39.936c-1.335,3.665-4.401,5.996-8.73,7.33      c-3.535,1.133-7.937,1.537-12.734,1.537c-10.932,0-24.936-2.201-36.465-4.004l-6.602-0.996c6.133,3.001,13.131,5.396,20.735,7.2      c10.13,2.396,21.198,3.665,32.8,3.665c14.928,0,30.533-2.07,45.664-6.536c13.932-4.134,27.402-10.267,39.603-18.665      c7.063-4.863,13.464-8.269,19.199-10.6c6.602-2.598,12.396-3.73,17.266-3.73c7.331,0,12.93,2.461,16.731,6.198      C486.003,194.111,487.604,196.579,488.601,199.111z M481.472,207.25c0-1.738-0.267-3.405-0.938-4.936      c-0.534-1.536-1.465-2.936-2.663-4.068l-0.071-0.131c-2.331-2.2-5.866-3.665-10.664-3.665c-3.933,0-8.601,0.996-14.069,3.132      c-5.13,2.063-10.996,5.201-17.532,9.668c-12.93,8.932-27.331,15.462-42.063,19.863c-15.938,4.732-32.402,6.934-48.066,6.934      c-12.201,0-24.069-1.335-34.805-3.933c-10.795-2.532-20.664-6.399-28.796-11.27c-4.733-2.8-7.2-5.065-7.937-6.862l-0.13-0.267      c-1.934-5.071,0.801-7.07,7.063-7.07c3.867,0,10.866,1.133,19.004,2.337c11.133,1.797,24.597,3.933,35.131,3.933      c4.068,0,7.598-0.332,10.201-1.133c1.732-0.534,2.865-1.204,3.197-1.999c4.805-13.672-13.132-20.533-35.463-29.004      c-4.603-1.731-9.336-3.535-13.6-5.267c-11.472-4.668-24.206-8.665-37.338-11.399c-11.731-2.468-23.867-3.933-35.664-3.933      c-5.332,0-10.599,0.267-15.735,0.931c-4.863,0.534-9.597,1.472-14.199,2.734l-0.397,0.065c-20.67,5.671-39.205,10.801-54.134,15      c-12.871,3.601-22.468,6.399-28.066,8.138v107.468c8.463-3.001,17.331-5.801,25.397-7.871      c8.398-2.129,16.067-3.464,21.868-3.464c9.265,0,28.997,4.531,52.8,10.065c35.332,8.203,79.732,18.535,109.863,18.535      c3.535,0,6.803-0.137,9.668-0.403c2.936-0.332,5.67-0.729,8.066-1.335c16.868-4.063,39.004-16.328,60.735-30.794      c32.266-21.537,63.464-47.937,75.397-60.202C480.137,214.45,481.472,210.778,481.472,207.25z M105.065,315.316v-16.537v-0.13      V181.911v-0.065v-16.067H57.871v149.538H105.065z"/><path d="M464.199,53.981c1.472,1.999,1.003,4.798-0.996,6.263l-38.47,27.8l14.733,45.202c0.403,1.27,0.267,2.799-0.664,4.004      c-1.4,1.998-4.199,2.461-6.27,0.996l-38.334-28.002l-38.131,27.8c-1.198,1.003-2.734,1.335-4.265,0.872      c-2.402-0.801-3.665-3.333-2.937-5.67l14.799-45.202l-38.529-27.8c-1.067-0.865-1.803-2.2-1.803-3.665      c0-2.468,1.998-4.466,4.466-4.466l47.532,0.064l14.604-45.195c0.396-1.27,1.465-2.402,2.864-2.871      c2.402-0.729,4.935,0.534,5.671,2.871l14.596,45.195l47.201-0.064C461.732,51.982,463.269,52.646,464.199,53.981z       M419.336,80.85l27.331-19.732l-33.196,0.064c-1.999,0.131-3.933-0.469-5.534-1.536c-1.536-1.067-2.8-2.663-3.398-4.597      l-10.339-32.07l-10.332,32.07c-0.599,1.797-1.731,3.398-3.196,4.467l-0.403,0.195c-1.4,0.938-3.066,1.471-4.799,1.471      l-33.736-0.064l27.467,19.863c1.4,1.067,2.468,2.532,3.002,4.199c0.599,1.666,0.67,3.665,0.064,5.533l-10.462,32.07l27.2-19.869      c1.53-1.133,3.334-1.667,5.195-1.667c1.804,0,3.601,0.534,5.137,1.667l27.266,19.869l-10.599-32.402      c-0.469-1.731-0.403-3.47,0.13-5.137C416.667,83.578,417.734,81.982,419.336,80.85z"/><path d="M311.472,348.916c2.396,0,4.329,1.934,4.329,4.33c0,2.337-1.934,4.271-4.329,4.271h-22.468      c-2.402,0-4.336-1.934-4.336-4.271c0-2.396,1.934-4.33,4.336-4.33H311.472z"/><path d="M296.472,360.446c2.396,0,4.329,1.934,4.329,4.336c0,2.396-1.934,4.329-4.329,4.329h-48.073      c-2.396,0-4.329-1.934-4.329-4.329c0-2.402,1.934-4.336,4.329-4.336H296.472z"/><path d="M211.934,103.649c0.6,2.266-0.801,4.661-3.066,5.267l-7.734,2.064c-2.266,0.599-4.661-0.736-5.267-3.066      c-0.599-2.266,0.735-4.668,3.066-5.268l7.669-2.063C208.933,99.978,211.27,101.313,211.934,103.649z"/><path d="M201.133,122.25c0.671,2.33-0.729,4.661-3.066,5.267c-2.266,0.664-4.668-0.735-5.267-3.001l-1.999-7.533      c-0.599-2.337,0.736-4.668,3.066-5.338c2.266-0.6,4.668,0.801,5.268,3.066L201.133,122.25z"/><path d="M195.202,100.114c0.664,2.266-0.735,4.668-3.001,5.267c-2.331,0.664-4.668-0.735-5.332-3.066l-1.934-7.2      c-0.6-2.266,0.801-4.668,3.066-5.267c2.33-0.664,4.668,0.735,5.267,3.066L195.202,100.114z"/><path d="M190.404,109.379c0.599,2.337-0.736,4.668-3.066,5.332l-7.871,2.07c-2.266,0.664-4.662-0.736-5.268-3.066      c-0.599-2.266,0.736-4.668,3.066-5.268l7.871-2.135C187.402,105.713,189.805,107.113,190.404,109.379z"/><path d="M104.935,349.184c2.064,2.063,3.333,4.928,3.333,8.131c0,3.132-1.27,5.996-3.333,8.066      c-2.064,2.064-4.935,3.398-8.131,3.398c-3.138,0-6.003-1.334-8.066-3.398c-2.07-2.07-3.405-4.935-3.405-8.066      c0-3.203,1.335-6.067,3.405-8.131c2.063-2.07,4.928-3.405,8.066-3.405C100,345.778,102.871,347.113,104.935,349.184z       M99.668,357.314c0-0.801-0.332-1.536-0.866-1.998c-0.469-0.534-1.198-0.866-1.999-0.866c-0.736,0-1.472,0.332-1.999,0.866      c-0.469,0.462-0.801,1.197-0.801,1.998c0,0.729,0.332,1.465,0.801,1.934c0.527,0.534,1.263,0.866,1.999,0.866      c0.801,0,1.53-0.332,1.999-0.866C99.336,358.779,99.668,358.044,99.668,357.314z"/><path d="M94.336,276.911c3.269,3.269,5.332,7.8,5.332,12.8c0,5.071-2.063,9.603-5.332,12.871l-0.267,0.267      c-3.269,3.132-7.734,5.065-12.598,5.065c-5,0-9.538-2.064-12.806-5.332c-3.333-3.269-5.332-7.8-5.332-12.871      c0-5,1.999-9.531,5.332-12.8c3.268-3.333,7.806-5.332,12.806-5.332S91.003,273.578,94.336,276.911z M91.003,289.711      c0-2.598-1.068-5-2.8-6.732c-1.667-1.666-4.069-2.734-6.731-2.734c-2.604,0-5,1.068-6.738,2.8c-1.732,1.667-2.8,4.069-2.8,6.667      c0,2.669,1.068,5.071,2.8,6.738c1.738,1.731,4.134,2.799,6.738,2.799c2.532,0,4.863-1.002,6.595-2.604l0.137-0.195      C89.935,294.782,91.003,292.38,91.003,289.711z"/><polygon points="24.733,192.646 27.07,200.446 18.802,202.914 16.537,195.114     "/><polygon points="18.802,202.914 21.133,210.648 12.871,213.115 10.534,205.381 10.534,205.316     "/><polygon points="14.199,187.38 16.472,195.114 8.269,197.582 5.938,189.848     "/><polygon points="10.534,205.316 10.534,205.381 2.337,207.849 0,200.049 8.203,197.582     "/></g></g></g></g><text x="0" y="384.111" fill="#000000" font-size="5px" font-weight="bold" font-family="'Helvetica Neue', Helvetica, Arial-Unicode, Arial, Sans-serif">Created by ibrandify</text><text x="0" y="389.111" fill="#000000" font-size="5px" font-weight="bold" font-family="'Helvetica Neue', Helvetica, Arial-Unicode, Arial, Sans-serif">from the Noun Project</text></svg>
