<svg xmlns="http://www.w3.org/2000/svg" xmlns:xlink="http://www.w3.org/1999/xlink" version="1.1" x="0px" y="0px" viewBox="0 0 128 160" style="enable-background:new 0 0 128 128;" xml:space="preserve" fill="ghostwhite"><g><path d="M79.9,91.1c0.6,0.7,1.4,1,2.2,1c0.7,0,1.4-0.2,2-0.8l12.1-11.1c0.6-0.6,1-1.4,1-2.2s-0.4-1.7-1-2.2L84.1,64.7   c-1.2-1.1-3.1-1-4.2,0.2c-1.1,1.2-1,3.1,0.2,4.2l9.6,8.8l-9.6,8.8C78.9,87.9,78.8,89.8,79.9,91.1z"/><path d="M54.7,103c0.3,0.1,0.5,0.2,0.8,0.2c1.3,0.1,2.6-0.6,3.1-1.9l16.5-44.4c0.6-1.6-0.2-3.3-1.8-3.9c-1.6-0.6-3.3,0.2-3.9,1.8   L52.9,99.1C52.3,100.7,53.1,102.4,54.7,103z"/><path d="M43.9,91.3c0.6,0.5,1.3,0.8,2,0.8c0.8,0,1.6-0.3,2.2-1c1.1-1.2,1-3.1-0.2-4.2L38.3,78l9.6-8.8c1.2-1.1,1.3-3,0.2-4.2   s-3-1.3-4.2-0.2L31.8,75.8c-0.6,0.6-1,1.4-1,2.2s0.4,1.7,1,2.2L43.9,91.3z"/><path d="M14,127h100c7.2,0,13-5.8,13-13V14c0-7.2-5.8-13-13-13H14C6.8,1,1,6.8,1,14v14v86C1,121.2,6.8,127,14,127z M7,14   c0-3.9,3.1-7,7-7h100c3.9,0,7,3.1,7,7v15H7V14z M7,35h114v79c0,3.9-3.1,7-7,7H14c-3.9,0-7-3.1-7-7V35z"/><path d="M22,15h-4c-1.7,0-3,1.3-3,3s1.3,3,3,3h4c1.7,0,3-1.3,3-3S23.7,15,22,15z"/><path d="M38,15h-4c-1.7,0-3,1.3-3,3s1.3,3,3,3h4c1.7,0,3-1.3,3-3S39.7,15,38,15z"/></g><text x="0" y="143" fill="#000000" font-size="5px" font-weight="bold" font-family="'Helvetica Neue', Helvetica, Arial-Unicode, Arial, Sans-serif">Created by Kokota</text><text x="0" y="148" fill="#000000" font-size="5px" font-weight="bold" font-family="'Helvetica Neue', Helvetica, Arial-Unicode, Arial, Sans-serif">from the Noun Project</text></svg>
