<svg xmlns="http://www.w3.org/2000/svg" xmlns:xlink="http://www.w3.org/1999/xlink" version="1.1" x="0px" y="0px" viewBox="0 0 65 81.25" enable-background="new 0 0 65 65" xml:space="preserve" fill="ghostwhite"><g><path d="M61.6,1H3.4c-2,0-3.7,1.6-3.7,3.6v55.7c0,2,1.6,3.7,3.7,3.7h58.2c2,0,3.7-1.6,3.7-3.7V4.6C65.3,2.6,63.6,1,61.6,1z    M3.4,2.5h58.2c1.2,0,2.2,1,2.2,2.1v4.1H1.3V4.6C1.3,3.4,2.2,2.5,3.4,2.5z M61.6,62.5H3.4c-1.2,0-2.2-1-2.2-2.2V10.2h62.5v50.2   C63.8,61.6,62.8,62.5,61.6,62.5z"/><rect x="56.9" y="4.9" width="1.5" height="1.5"/><rect x="49.3" y="4.9" width="1.5" height="1.5"/><rect x="53.1" y="4.9" width="1.5" height="1.5"/><rect x="6.1" y="4.9" width="38.5" height="1.5"/><path d="M50.3,43.1c0.8-0.3,1.4-0.8,1.8-1.6c0.4-0.8,0.5-1.7,0.2-2.5c-0.3-1-1.1-1.7-2-2.1c0.5-0.8,0.6-1.7,0.3-2.7   c-0.3-0.8-0.8-1.5-1.6-1.9c-0.1-0.1-0.3-0.1-0.4-0.2c0-0.1,0.1-0.1,0.1-0.2c0.4-0.8,0.5-1.7,0.2-2.5c-0.3-1-1.1-1.7-2-2.1   c0.5-0.8,0.6-1.7,0.3-2.7c-0.3-0.8-0.8-1.5-1.6-1.9c-0.7-0.4-1.6-0.5-2.4-0.2l-1.1-3.4c-0.6-1.8-2.4-2.9-4.3-2.5l-3.4,0.6l0-0.1   l-5.8-0.9c-1.7-0.3-3.3,0.6-4,2.1l-1.9,4.1l-1-0.3c-0.4-0.1-0.7-0.2-1.1-0.2c-1.4,0-2.6,0.9-3.1,2.2c-0.3,0.9-0.2,1.9,0.2,2.7   c-0.9,0.3-1.7,1-2.1,2c-0.3,0.8-0.3,1.7,0.1,2.5c0,0.1,0.1,0.1,0.1,0.2c-0.9,0.3-1.7,1-2.1,2c-0.3,0.8-0.3,1.7,0.1,2.5   c0,0.1,0.1,0.1,0.1,0.2c-0.9,0.3-1.7,1-2.1,2c-0.6,1.7,0.3,3.6,2,4.2l0.2,0.1l-3.9,2.2l0.7,1.3l5-2.9l1.2,0.4   c0.4,0.1,0.7,0.2,1.1,0.2c1.4,0,2.6-0.9,3.1-2.2c0.2-0.6,0.2-1.2,0.1-1.8l0.9,0.3c0.4,0.1,0.7,0.2,1.1,0.2c1.4,0,2.6-0.9,3.1-2.2   c0.3-0.8,0.2-1.6-0.1-2.3c1.1-0.2,2.1-1,2.5-2.1c0.5-1.4,0-2.9-1.1-3.7c0.6-0.4,1-0.9,1.3-1.6c0.3-0.8,0.3-1.7-0.1-2.5   c-0.4-0.8-1-1.4-1.8-1.7l-3.3-1.2l1.8-4c0.4-0.9,1.4-1.5,2.4-1.3l1.9,0.3l-3,0.6l0.1,0.7c0,0.1,0.3,2.7,2.9,4   c1.1,0.6,2.5,0.7,3.9,0.4l0.4-0.1l0,1.7L33,26l0.5,1.4l10.2-3.4c0.4-0.1,0.9-0.1,1.3,0.1c0.4,0.2,0.7,0.6,0.9,1   c0.3,0.9-0.2,1.9-1.1,2.2l-7.5,2.4l0.5,1.4l0.1,0l0,0l7.4-2.4c0.9-0.3,1.9,0.2,2.2,1.1c0.1,0.4,0.1,0.9-0.1,1.3   c-0.2,0.4-0.6,0.7-1,0.9l-5,1.7l0.5,1.4l0.1,0l0,0l5-1.7c0.4-0.1,0.9-0.1,1.3,0.1c0.4,0.2,0.7,0.6,0.9,1c0.3,0.9-0.2,1.9-1.1,2.2   l-3.9,1.2l0.4,1.4l0.1,0l0,0l3.9-1.2c0.9-0.3,1.9,0.2,2.2,1.1c0.1,0.4,0.1,0.9-0.1,1.3c-0.2,0.4-0.6,0.7-1,0.9l-0.1,0.1l0,0l-4,2.2   l-2.3,1.2l0,0L24.7,55.2l0.7,1.3l7.8-4.2l11.6,6.2l0.7-1.3l-10.7-5.8l13.5-7.2l5,2.6l0.7-1.3l-4.1-2.2L50.3,43.1z M20.2,39.8   c0.2,0.4,0.2,0.9,0.1,1.3c-0.3,0.7-0.9,1.2-1.7,1.2c-0.2,0-0.4,0-0.6-0.1l-3.3-1.2c-0.9-0.3-1.4-1.3-1.1-2.2   c0.3-0.7,0.9-1.2,1.7-1.2c0.2,0,0.4,0,0.6,0.1l1.1,0.4l2.5,0.9C19.8,39.2,20.1,39.5,20.2,39.8z M25.5,37.7   c-0.3,0.9-1.3,1.4-2.3,1.1l-3.3-1.2c-0.1,0-0.1-0.1-0.2-0.1l-2.3-0.8l-0.9-0.3c-0.4-0.2-0.8-0.5-1-0.9c-0.2-0.4-0.2-0.9-0.1-1.3   c0.3-0.7,0.9-1.2,1.7-1.2c0.2,0,0.4,0,0.6,0.1l6.7,2.4c0.4,0.2,0.8,0.5,1,0.9C25.6,36.8,25.6,37.3,25.5,37.7z M27.9,33.3   c-0.3,0.8-1.3,1.3-2.1,1l-7.5-2.7c-0.4-0.2-0.8-0.5-1-0.9c-0.2-0.4-0.2-0.9-0.1-1.3c0.3-0.7,0.9-1.2,1.7-1.2c0.2,0,0.4,0,0.6,0.1   l7.3,2.6C27.8,31.3,28.3,32.4,27.9,33.3z M28.1,26.6c0.2,0.4,0.2,0.9,0.1,1.3c-0.3,0.9-1.4,1.4-2.2,1.1l-5.7-2   c-0.9-0.3-1.4-1.3-1.1-2.3c0.3-0.7,0.9-1.2,1.7-1.2c0.2,0,0.4,0,0.6,0.1l5.7,2C27.5,25.9,27.9,26.2,28.1,26.6z M34,22.4   c-1,0.2-2.1,0.2-2.9-0.3c-1.2-0.6-1.7-1.5-2-2.2l9.1-1.7c1.1-0.2,2.2,0.4,2.6,1.5l1.1,3.4L36.3,25l0.1-3.2L34,22.4z"/></g><text x="0" y="80" fill="#000000" font-size="5px" font-weight="bold" font-family="'Helvetica Neue', Helvetica, Arial-Unicode, Arial, Sans-serif">Created by Creative Stall</text><text x="0" y="85" fill="#000000" font-size="5px" font-weight="bold" font-family="'Helvetica Neue', Helvetica, Arial-Unicode, Arial, Sans-serif">from the Noun Project</text></svg>
